<?xml version="1.0" encoding="UTF-8" standalone="no"?>
<svg
   width="14.788mm"
   height="9.171mm"
   viewBox="-14.829073 0.095956 14.787889 9.170970"
   version="1.1"
   id="svg1258"
   sodipodi:docname="bauxite.svg"
   inkscape:version="1.2.2 (732a01da63, 2022-12-09)"
   xmlns:inkscape="http://www.inkscape.org/namespaces/inkscape"
   xmlns:sodipodi="http://sodipodi.sourceforge.net/DTD/sodipodi-0.dtd"
   xmlns="http://www.w3.org/2000/svg"
   xmlns:svg="http://www.w3.org/2000/svg">
  <defs
     id="defs1262" />
  <sodipodi:namedview
     id="namedview1260"
     pagecolor="#ffffff"
     bordercolor="#666666"
     borderopacity="1.0"
     inkscape:showpageshadow="2"
     inkscape:pageopacity="0.0"
     inkscape:pagecheckerboard="0"
     inkscape:deskcolor="#d1d1d1"
     inkscape:document-units="mm"
     showgrid="false"
     inkscape:zoom="9.6288143"
     inkscape:cx="-4.4138352"
     inkscape:cy="15.266677"
     inkscape:window-width="1920"
     inkscape:window-height="1017"
     inkscape:window-x="-8"
     inkscape:window-y="-8"
     inkscape:window-maximized="1"
     inkscape:current-layer="svg1258" />
  <path
     style="fill:none;stroke:#000000;stroke-width:0.0499998mm"
     d="m -8.515111,9.2471933 c 0.8216039,-0.1058715 1.6100674,-0.7105243 2.4526846,-0.4037814 0.6112509,0.3111188 1.3326671,0.2295116 1.9795802,0.095474 0.4773408,-0.2368216 0.9277173,-0.4056579 1.3703197,-0.7350162 0.5010776,-0.5234601 1.1800003,0.192507 1.6992538,-0.1715241 0.49675156,-0.350578 0.88006746,-0.8597501 0.95839417,-1.4649253 C 0.02151065,5.9661431 -0.04852142,5.2457649 -0.65804666,4.990402 -1.6416643,4.5828424 -2.2154483,3.5814412 -3.132102,3.0593032 -4.0723178,2.5608006 -4.9824229,1.9974704 -5.787135,1.2978596 -6.4540291,0.84110598 -7.4450844,0.12442886 -7.8948846,0.09595312 -8.2872992,0.15536668 -8.8097718,0.62991345 -9.2314285,1.0796982 c -0.4585084,0.3700612 -1.1981965,0.2807857 -1.5748505,0.8576506 -0.409329,0.3635002 -0.572076,0.7656694 -1.084151,1.1258127 -0.620893,0.174189 -1.318403,0.070805 -1.898863,0.3677186 -0.514312,0.3769731 -0.455952,1.0448373 -0.668917,1.5691851 0.0772,0.8923773 -0.682299,1.7604704 -0.20899,2.6274196 0.477959,0.7133301 1.385268,0.9016833 2.154642,1.1479012 0.586448,0.1751529 1.193545,0.2646936 1.797926,0.3303986 0.602688,0.1807984 1.2573645,0.1371901 1.8841469,0.1606432 0.1051956,-0.00265 0.2111344,-0.00268 0.3153741,-0.019235 z"
     id="path1248"
     sodipodi:nodetypes="cccccccccccccccccccc" />
  <path
     style="fill:none;stroke:#000000;stroke-width:0.0499998mm"
     d="m -9.219127,8.588706 c -0.6175276,-0.1019282 -1.262439,-0.1040019 -1.876742,-0.2360925 -0.59911,-0.1430647 -1.214957,-0.2974726 -1.808255,-0.5068861 -0.546741,-0.1997935 -1.301286,-0.657284 -1.29002,-1.2953688 0.18361,-0.6290092 0.493813,-1.1973978 0.567602,-1.8535543 0.06094,-0.8263377 0.888889,-1.1204498 1.602947,-1.0378338 0.629561,0.1160553 0.833781,-0.3847477 1.078162,-0.8130718 0.599457,-0.2660957 0.925422,-1.0698606 1.6593408,-1.0650108 0.5253289,-0.1860895 0.7459738,-1.07242503 1.4526729,-0.91457721 0.5993953,0.26277561 1.2152708,0.53208861 1.7115958,0.96729841 0.47086,0.3810348 0.9306583,0.7277036 1.4374881,1.0339957 0.4087743,0.3331362 0.9682552,0.4746919 1.3864034,0.8392826 0.6534598,0.4837513 1.1751348,1.1329238 1.9054768,1.5145706 0.51710837,0.280534 0.96032782,0.8980401 0.71339804,1.4971856 -0.1803046,0.2444395 -0.40392554,0.5257715 -0.64532904,0.6913511 -0.4501669,-0.00381 -0.9244063,-0.1566055 -1.355702,0.00384 C -3.543494,8.085678 -4.6451773,8.6634529 -5.7680781,8.3593524 -6.2665989,8.0707411 -6.9055004,8.1297971 -7.4280649,8.329959 -7.9766584,8.4789241 -8.526193,8.7439243 -9.1047745,8.6401289 l -0.083095,-0.022736 z"
     id="path1250" />
  <path
     style="fill:none;stroke:#000000;stroke-width:0.0499998mm"
     d="m -6.9898019,6.8683982 c 0.389683,-0.1167774 0.5196068,-0.2955565 0.5196068,-0.7149947 0,-0.2090317 -0.04204,-0.4473734 -0.093421,-0.5296485 -0.072413,-0.1159496 -0.072413,-0.1957002 0,-0.3546273 0.213205,-0.4679356 0.050279,-0.9511326 -0.3957297,-1.1736313 -0.3467435,-0.1729785 -1.743311,-0.1694648 -1.8100877,0.00455 -0.026115,0.068054 -0.047482,0.7151631 -0.047482,1.4380208 0,1.2968394 0.00234,1.3149129 0.176004,1.3614539 0.2558261,0.068559 1.3897972,0.047181 1.6511092,-0.031127 z"
     id="path1252-1" />
  <path
     style="fill:none;stroke:#000000;stroke-width:0.0499998mm"
     d="m -8.2538791,6.0688086 0.023644,-0.410676 0.4177913,-0.023891 c 0.6723986,-0.03845 1.0115278,0.3195264 0.6652215,0.7021909 -0.099718,0.1101875 -0.2444249,0.1430516 -0.6298799,0.1430516 h -0.5004209 z"
     id="path1254-5" />
  <path
     style="fill:none;stroke:#000000;stroke-width:0.0499998mm"
     d="m -8.2302351,4.8367806 v -0.352008 l 0.4177913,-0.02389 c 0.4696795,-0.026858 0.7946807,0.1257968 0.7946807,0.373266 0,0.2550868 -0.3037939,0.4014178 -0.78224,0.3767878 l -0.430232,-0.022147 z"
     id="path1256-7" />
</svg>
