<?xml version="1.0" encoding="UTF-8" standalone="no"?>
<svg
   width="14.989mm"
   height="5.419mm"
   viewBox="-15.031876 0.055589 14.989021 5.418597"
   version="1.1"
   id="svg1061"
   sodipodi:docname="cars.svg"
   inkscape:version="1.2.2 (732a01da63, 2022-12-09)"
   xmlns:inkscape="http://www.inkscape.org/namespaces/inkscape"
   xmlns:sodipodi="http://sodipodi.sourceforge.net/DTD/sodipodi-0.dtd"
   xmlns="http://www.w3.org/2000/svg"
   xmlns:svg="http://www.w3.org/2000/svg">
  <defs
     id="defs1065" />
  <sodipodi:namedview
     id="namedview1063"
     pagecolor="#ffffff"
     bordercolor="#666666"
     borderopacity="1.0"
     inkscape:showpageshadow="2"
     inkscape:pageopacity="0.0"
     inkscape:pagecheckerboard="0"
     inkscape:deskcolor="#d1d1d1"
     inkscape:document-units="mm"
     showgrid="false"
     inkscape:zoom="16.295599"
     inkscape:cx="20.864529"
     inkscape:cy="12.365302"
     inkscape:window-width="958"
     inkscape:window-height="1008"
     inkscape:window-x="-7"
     inkscape:window-y="0"
     inkscape:window-maximized="0"
     inkscape:current-layer="svg1061" />
  <path
     style="fill:none;stroke:#000000;stroke-width:0.0500001mm"
     d="m -3.0835565,5.4064093 c 0.4849271,-0.1566629 0.7559469,-0.6487728 0.8030296,-1.1321088 0.7458887,-0.013521 1.49177738,-0.027042 2.23766608,-0.040562 C -0.0530749,3.8543741 -0.30224731,3.7205477 -0.59687743,3.5879594 -0.75957854,3.0890203 -1.0832075,2.6842383 -1.3475664,2.2359798 -1.452569,1.9265259 -1.7945993,2.0213906 -1.778901,2.3134 -2.3588011,2.2543122 -2.9500398,2.1765829 -3.5101841,2.0042006 -4.0295994,1.845323 -4.7415338,2.0836125 -5.1039531,1.5918277 -5.4477454,1.1287461 -5.7450244,0.57413912 -6.3573514,0.43707744 -7.0241702,0.31424184 -7.6762764,0.09814723 -8.3627762,0.0886347 -9.5329075,0.02561525 -10.761825,0.00771961 -11.856751,0.4778736 c -0.555059,0.20685129 -0.795326,0.6941396 -0.806272,1.2538017 -0.327207,0.4162541 -0.918865,0.4591187 -1.383405,0.599427 -0.582361,0.071339 -0.590951,0.7796657 -0.716407,1.2195885 -0.05213,0.1847479 -0.496612,0.7588724 -0.07435,0.6873372 0.64785,0.02043 1.306169,-0.048648 1.944993,0.069885 0.409917,0.3324634 0.495027,1.0532918 1.155489,1.0959681 0.608646,0.1100968 1.1412,-0.361969 1.27726,-0.9290682 0.10232,-0.2422143 0.315527,-0.266231 0.5485953,-0.2372393 1.703843,0.012231 3.4094958,-0.034348 5.1117566,0.046757 0.4353912,0.125108 0.2989795,0.8958474 0.8528973,1.034424 0.2614053,0.1420687 0.5795976,0.2092917 0.8626363,0.087654 z"
     id="path1049" />
  <path
     style="fill:none;stroke:#000000;stroke-width:0.0500001mm"
     d="m -3.7026564,4.5901486 c -0.4527085,-0.6150858 1.2276144,-0.3681807 0.4390602,0.063914 -0.1434515,0.035144 -0.3200083,0.035945 -0.4390602,-0.063914 z"
     id="path1051" />
  <path
     style="fill:none;stroke:#000000;stroke-width:0.0500001mm"
     d="m -11.782486,4.5901486 c -0.440197,-0.5479962 0.939261,-0.4178646 0.379359,0.051816 -0.121345,0.057227 -0.280561,0.041748 -0.379359,-0.051816 z"
     id="path1053" />
  <path
     style="fill:none;stroke:#000000;stroke-width:0.0500001mm"
     d="m -8.4765211,2.0143178 c -0.1514968,-0.3223856 -0.044618,-0.6984317 -0.051997,-1.0454023 0.5629394,-0.008762 1.1274962,-0.0537116 1.689419,-0.005602 0.2927058,0.2653502 1.1218741,1.1419379 0.303449,1.1849831 -0.6444142,0.00368 -1.3145736,0.026905 -1.940871,-0.1339788 z"
     id="path1055" />
  <path
     style="fill:none;stroke:#000000;stroke-width:0.0500001mm"
     d="m -11.519918,1.8903404 c 0.07214,-0.3413521 0.246819,-0.6475327 0.390118,-0.9623715 0.646735,0.013649 1.2934699,0.0272979 1.9402045,0.0409466 -1.469e-4,0.3540797 0.081936,0.7297058 -0.016865,1.0684113 -0.6274194,0.1225886 -1.2819215,0.03061 -1.9214915,0.040583 -0.167206,-0.043159 -0.516328,0.1121521 -0.391966,-0.1875694 z"
     id="path1057" />
  <path
     style="fill:none;stroke:#000000;stroke-width:0.0500001mm"
     d="M -5.5109378,1.915946 C -5.6807648,1.7027002 -6.1344671,1.1127483 -5.9237436,0.95102573 -5.8346452,1.0768963 -4.9424262,2.1001422 -5.5109378,1.915946 Z"
     id="path1059" />
</svg>
