<?xml version="1.0" encoding="UTF-8" standalone="no"?>
<svg
   width="14.000mm"
   height="13.844mm"
   viewBox="-17.495571 5.297961 14.000000 13.843740"
   version="1.1"
   id="svg792"
   sodipodi:docname="cattle-smooth.svg"
   inkscape:version="1.2.2 (732a01da63, 2022-12-09)"
   xmlns:inkscape="http://www.inkscape.org/namespaces/inkscape"
   xmlns:sodipodi="http://sodipodi.sourceforge.net/DTD/sodipodi-0.dtd"
   xmlns="http://www.w3.org/2000/svg"
   xmlns:svg="http://www.w3.org/2000/svg">
  <defs
     id="defs796" />
  <sodipodi:namedview
     id="namedview794"
     pagecolor="#ffffff"
     bordercolor="#666666"
     borderopacity="1.0"
     inkscape:showpageshadow="2"
     inkscape:pageopacity="0.0"
     inkscape:pagecheckerboard="0"
     inkscape:deskcolor="#d1d1d1"
     inkscape:document-units="mm"
     showgrid="false"
     inkscape:zoom="12.757274"
     inkscape:cx="16.931516"
     inkscape:cy="29.982894"
     inkscape:window-width="958"
     inkscape:window-height="1008"
     inkscape:window-x="-7"
     inkscape:window-y="0"
     inkscape:window-maximized="0"
     inkscape:current-layer="svg792" />
  <path
     style="fill:none;stroke:#000000;stroke-width:0.05mm"
     d="m -5.7203612,18.925074 c 0.1607294,-0.680819 0.7813287,-1.182982 0.7712396,-1.891277 -0.072668,-0.612092 -0.253335,-1.208549 -0.1869869,-1.845175 0.016239,-0.706033 0.076357,-1.459877 0.390067,-2.087886 0.2844183,-1.051784 0.9266221,0.596445 0.4792757,0.980154 -0.074,0.610329 -0.3966842,1.204979 -0.182385,1.837516 0.2051499,0.425417 0.3405703,1.020858 0.9313558,0.807456 0.07724,-0.465803 -0.063434,-0.903738 -0.1383244,-1.354372 -0.059581,-1.005315 -0.00239,-2.01596 -0.096636,-3.019028 -0.12151,-0.566836 -0.56466,-1.096986 -1.124364,-1.145031 -0.7616258,-0.01978 -1.5308925,0.04147 -2.2781771,-0.130134 -0.6976655,-0.0141 -1.3722242,-0.154736 -2.0546876,-0.27165 -0.6918512,-0.174572 -1.4327249,-0.254809 -2.0792709,-0.547476 -0.593757,-0.03352 -1.218563,-0.5732926 -0.802532,-1.1780732 0.33079,-0.5914915 0.771257,-1.110086 1.173226,-1.6451392 0.256776,-0.4087453 0.736652,-1.1395838 0.401783,-1.5470382 -0.611887,0.4341856 -0.863573,1.2076053 -1.585586,1.518259 -0.540976,0.4083112 -1.222163,0.3241144 -1.83819,0.5025742 -0.591748,-0.114848 -1.241954,-0.084611 -1.797517,-0.3475334 -0.72205,-0.3133426 -1.16894,-1.1126092 -1.304206,-1.8421562 -0.07904,-0.6977177 -0.610984,-0.3077607 -0.454335,0.221252 0.04,0.724615 0.292142,1.4137109 0.640337,2.0364995 0.390439,0.4914134 0.753928,1.0189753 1.009312,1.6008304 0.06614,0.6031581 -0.216655,1.2989851 0.04809,1.9163551 0.319451,0.472254 0.656609,0.959659 0.719188,1.538899 0.249128,0.660602 0.281203,1.384015 0.535628,2.038055 0.158263,0.623879 0.312239,1.342175 0.729584,1.808392 0.478663,0.612295 -0.150714,1.61799 0.470886,2.119558 0.764621,-0.117906 0.0884,-1.357237 0.756254,-1.621055 0.717549,0.03582 0.422148,1.081785 0.574078,1.584395 0.66515,0.494192 0.473542,-0.892356 0.716466,-1.254264 0.180045,-0.376866 0.520274,-0.642784 0.795138,-0.949841 0.488018,-0.02308 0.9931071,0.06105 1.4663103,-0.07221 0.5371315,-0.546234 1.3057324,-0.100071 1.6510367,0.424449 0.4762632,0.547096 0.1249697,1.325802 0.4017113,1.929499 0.5396145,0.204863 0.3903772,-0.965303 0.6514018,-1.33501 0.1947802,-0.461855 0.3540186,-0.392064 0.2481532,0.04491 -0.025451,0.270205 -0.6347091,1.927981 0.3626805,1.175298 z"
     id="path790" />
</svg>
