<?xml version="1.0" encoding="UTF-8" standalone="no"?>
<svg
   width="16mm"
   height="13.681mm"
   viewBox="2.429507 -15.49519 16.000001 13.681343"
   version="1.1"
   id="svg7"
   sodipodi:docname="coal.svg"
   inkscape:version="1.3.2 (091e20e, 2023-11-25, custom)"
   xmlns:inkscape="http://www.inkscape.org/namespaces/inkscape"
   xmlns:sodipodi="http://sodipodi.sourceforge.net/DTD/sodipodi-0.dtd"
   xmlns="http://www.w3.org/2000/svg"
   xmlns:svg="http://www.w3.org/2000/svg">
  <defs
     id="defs7" />
  <sodipodi:namedview
     id="namedview7"
     pagecolor="#ffffff"
     bordercolor="#000000"
     borderopacity="0.25"
     inkscape:showpageshadow="2"
     inkscape:pageopacity="0.0"
     inkscape:pagecheckerboard="0"
     inkscape:deskcolor="#d1d1d1"
     inkscape:document-units="mm"
     showgrid="false"
     inkscape:zoom="7.3025919"
     inkscape:cx="25.059595"
     inkscape:cy="25.333471"
     inkscape:window-width="1500"
     inkscape:window-height="938"
     inkscape:window-x="-6"
     inkscape:window-y="-6"
     inkscape:window-maximized="1"
     inkscape:current-layer="svg7" />
  <path
     style="fill:none;stroke:#000000;stroke-width:0.0500001mm"
     d="m 5.3224256,-2.3795819 c 0.1918798,-0.1918777 0.1120395,-0.4828635 -0.1202164,-0.4381353 -0.1903666,0.036661 -0.2797116,0.3611572 -0.1383583,0.5025094 0.0619,0.061901 0.1556376,0.038565 0.2585747,-0.064374 z"
     id="path1" />
  <path
     style="fill:none;stroke:#000000;stroke-width:0.0500001mm"
     d="m 9.6061573,-2.4712336 c 0.07607,-0.1982344 -0.027573,-0.3680095 -0.2246607,-0.3680095 -0.099503,0 -0.1417565,0.077046 -0.1207069,0.2201019 0.039327,0.2672626 0.2628352,0.3629846 0.3453676,0.1479076 z"
     id="path2" />
  <path
     style="fill:none;stroke:#000000;stroke-width:0.0500001mm"
     d="m 12.52567,-2.6909575 c 0.08952,-0.08952 0.162765,-0.2749916 0.162765,-0.412158 0,-0.3128827 0.241268,-0.9015739 0.412998,-1.0077087 0.07129,-0.044062 0.406607,-0.1066405 0.745136,-0.1390616 0.574042,-0.054976 0.615361,-0.076017 0.613323,-0.3123243 -0.0013,-0.1458897 -0.34522,-0.763924 -0.810808,-1.4568695 l -0.808623,-1.2034922 -0.05854,-1.3302828 c -0.06425,-1.4601204 -0.108913,-1.6412124 -0.432241,-1.7526944 -0.241057,-0.08312 -5.3509787,-0.04697 -7.6653075,0.05422 -1.434442,0.06272 -1.4697517,0.06975 -1.5947844,0.3175169 -0.1335319,0.264614 -0.1793446,1.8605563 -0.069217,2.4112038 0.03548,0.1773952 0.5323116,0.8988622 1.1707794,1.7001307 1.1764611,1.4764411 1.3364477,1.7247176 1.4494206,2.249284 0.039115,0.1816281 0.1556295,0.3754619 0.2589194,0.4307417 0.1032919,0.055279 0.8316387,0.1005078 1.6185501,0.1005078 h 1.4307502 l 0.1569481,-0.3800672 c 0.2899036,-0.7020311 0.3570098,-0.7347948 1.5050001,-0.7347948 1.212794,0 1.315985,0.064129 1.424949,0.8855321 0.08274,0.623709 0.249309,0.8209897 0.489982,0.5803165 z"
     id="path3" />
  <path
     style="fill:none;stroke:#000000;stroke-width:0.0500001mm"
     d="M 6.4600947,-3.4636281 C 6.3036685,-3.5349012 6.1076689,-3.7845368 5.9627511,-4.0970718 5.8312066,-4.3807695 5.5457516,-4.8181214 5.3284094,-5.0689651 4.3153109,-6.2382147 3.6930249,-7.0837655 3.5357666,-7.5047775 3.320861,-8.0801171 3.3044502,-9.3066427 3.5079316,-9.5850511 c 0.1813413,-0.248117 0.968126,-0.299733 5.1316484,-0.336655 2.818475,-0.02499 3.009125,-0.01516 3.233952,0.166899 0.259258,0.209934 0.388531,0.8100864 0.4021,1.8667536 0.0094,0.7287 0.105114,0.976746 0.722991,1.8728176 0.599297,0.8691265 0.678415,1.3464826 0.221905,1.338862 -0.153294,-0.00255 -1.168071,0.047134 -2.25506,0.110429 -1.7871851,0.1040672 -1.9908956,0.1345941 -2.1283711,0.3189465 -0.4621859,0.6197817 -0.593854,0.7286367 -0.9685872,0.8007652 -0.6147506,0.1183263 -1.1243525,0.1120334 -1.408415,-0.017395 z"
     id="path4" />
  <path
     style="fill:none;stroke:#000000;stroke-width:0.0500001mm"
     d="m 15.965451,-3.3122138 c 0.03716,-0.037162 0.06757,-0.4050249 0.06757,-0.8174718 0,-0.4124469 0.05228,-0.8495231 0.116174,-0.9712801 0.112316,-0.2140269 0.679572,-0.9307898 1.201389,-1.5180298 0.543386,-0.6115129 0.608106,-0.8432766 0.608106,-2.1776446 0,-1.2065859 -0.0086,-1.2563749 -0.261878,-1.5096149 l -0.261878,-0.261879 -1.942506,0.06027 c -1.861505,0.05776 -1.950339,0.06987 -2.130336,0.290637 -0.146341,0.179483 -0.174314,0.3289809 -0.126638,0.6768099 0.03366,0.2455432 0.08953,0.8845876 0.124164,1.4200996 0.06305,0.9748848 0.17236,1.2929993 0.614329,1.7878818 1.205451,1.34977 1.449013,1.7755374 1.450403,2.5354257 7.7e-4,0.4226944 0.318521,0.7073782 0.541104,0.4847962 z"
     id="path5" />
  <path
     style="fill:none;stroke:#000000;stroke-width:0.0500001mm"
     d="m 15.07076,-5.8380526 c -0.133716,-0.1442832 -0.43398,-0.5097219 -0.667252,-0.8120854 -0.393759,-0.5103854 -0.431461,-0.6153977 -0.526477,-1.4664354 -0.126087,-1.1293331 -0.01129,-1.6360107 0.408121,-1.8013827 0.153052,-0.06035 0.857985,-0.1228089 1.566519,-0.1388029 1.669097,-0.03768 1.650936,-0.05273 1.650936,1.3681152 0,1.0156341 -0.0066,1.0447778 -0.350178,1.5397826 -1.072702,1.545602 -1.572436,1.8602796 -2.081669,1.3108086 z"
     id="path6" />
  <path
     style="fill:none;stroke:#000000;stroke-width:0.0500001mm"
     d="m 12.587084,-11.15583 c 1.031246,-0.03106 1.886395,-0.06527 1.900331,-0.07601 0.01394,-0.01074 0.02534,-0.132501 0.02534,-0.270573 0,-0.16362 -0.09706,-0.312344 -0.278715,-0.427079 -0.375811,-0.237364 -1.110805,-0.829851 -1.453321,-1.171536 -0.153665,-0.153293 -0.37197,-0.278715 -0.485121,-0.278715 -0.349674,0 -0.70305,-0.216271 -0.821796,-0.502949 -0.142135,-0.343145 -0.759994,-0.987028 -1.029089,-1.072436 -0.132329,-0.042 -0.333628,0.02664 -0.5810965,0.198132 -0.2339613,0.162135 -0.5163642,0.262392 -0.7391074,0.262392 -0.2161118,0 -0.5080665,0.100159 -0.7290137,0.250097 -0.6545562,0.444194 -1.0268164,0.711323 -1.0786615,0.774032 -0.027871,0.03371 -0.6037966,0.434431 -1.2798351,0.890487 -0.6760365,0.456055 -1.3139427,0.922877 -1.417568,1.037382 -0.1838923,0.2032 -0.1835832,0.211757 0.012948,0.356956 0.1685366,0.124517 0.6804271,0.143674 3.1405351,0.117534 1.6165481,-0.01718 3.7829261,-0.05665 4.8141731,-0.08771 z"
     id="path7" />
</svg>
