<?xml version="1.0" encoding="UTF-8" standalone="no"?>
<svg
   width="14.000mm"
   height="12.153mm"
   viewBox="-14.741493 0.611352 13.999999 12.153462"
   version="1.1"
   id="svg653"
   sodipodi:docname="copper-smooth.svg"
   inkscape:version="1.2.2 (732a01da63, 2022-12-09)"
   xmlns:inkscape="http://www.inkscape.org/namespaces/inkscape"
   xmlns:sodipodi="http://sodipodi.sourceforge.net/DTD/sodipodi-0.dtd"
   xmlns="http://www.w3.org/2000/svg"
   xmlns:svg="http://www.w3.org/2000/svg">
  <defs
     id="defs657" />
  <sodipodi:namedview
     id="namedview655"
     pagecolor="#ffffff"
     bordercolor="#666666"
     borderopacity="1.0"
     inkscape:showpageshadow="2"
     inkscape:pageopacity="0.0"
     inkscape:pagecheckerboard="0"
     inkscape:deskcolor="#d1d1d1"
     inkscape:document-units="mm"
     showgrid="false"
     inkscape:zoom="14.532355"
     inkscape:cx="28.384939"
     inkscape:cy="20.781216"
     inkscape:window-width="1920"
     inkscape:window-height="1017"
     inkscape:window-x="1912"
     inkscape:window-y="-8"
     inkscape:window-maximized="1"
     inkscape:current-layer="svg653" />
  <path
     style="fill:none;stroke:#000000;stroke-width:0.05mm"
     d="m -4.8437703,12.690432 c 0.7988294,-0.460512 0.010644,-1.369516 -0.6995159,-1.13238 -2.935256,-0.03916 -5.8710648,-0.01354 -8.8065718,-0.02079 -0.375318,0.245911 -0.666126,1.056501 -0.04788,1.145329 1.598039,0.151667 3.209391,0.05316 4.8127887,0.08027 1.5800989,-0.01398 3.1630872,0.0097 4.741179,-0.07243 z"
     id="path643" />
  <path
     style="fill:none;stroke:#000000;stroke-width:0.05mm"
     d="m -4.8348966,11.137305 c 0.2288631,-0.921428 -0.071281,-1.9397347 0.3243997,-2.8328624 0.3036741,-0.5537777 0.453031,-1.1994184 0.7478772,-1.7683516 0.1439947,-0.2310123 0.2302836,-0.9509692 0.558038,-0.6001451 0.5306994,0.2749344 1.2111976,0.4456841 1.5842925,0.8967463 -0.00504,0.3864402 0.2715034,0.5940856 0.3849722,0.1228282 0.24270876,-0.2245912 0.75443467,-0.4391712 0.3773774,-0.8964247 -0.3142011,-0.038559 -0.4652086,-0.140142 -0.3905261,-0.4756731 -0.0391,-1.5438518 -0.00278,-3.0915184 -0.1086017,-4.6321803 -0.1757144,-0.81507037 -0.9435416,0.2783727 -1.3782868,0.3564537 -0.4444885,0.4296905 -1.1015014,0.6984021 -1.5528313,1.1198198 -0.5181124,0.2690546 -1.0337111,0.6088573 -1.473525,0.950389 -0.5278386,0.2816393 -1.0153459,0.6232913 -1.4848858,0.9501188 -0.5438817,0.3486349 -1.1079459,0.6991683 -1.5997563,1.1037019 -0.4900376,0.2803527 -0.9114686,0.5758322 -1.3919574,0.8756366 -0.180031,0.1480588 -0.369279,0.2674993 -0.612175,0.2203687 -1.192677,0.034499 -2.389305,0.018286 -3.57798,0.1222138 -0.135351,1.0618272 -0.06496,2.1458377 -0.08221,3.218055 0,0.4538674 0,0.9077354 0,1.3616024 3.107231,-0.01272 6.2154396,0.03409 9.3218406,-0.04407 0.1181731,-0.01077 0.2413413,-0.0051 0.3539408,-0.04823 z"
     id="path645" />
  <path
     style="fill:none;stroke:#000000;stroke-width:0.05mm"
     d="m -9.511268,8.268413 c -0.061715,-0.3970508 0.020876,-1.2285059 0.5612476,-0.7005727 0.5324103,0.3674935 1.1123087,0.6092573 1.687938,0.9037041 0.2361392,0.1887954 0.9695125,0.4848343 0.9059672,0.6813796 -1.051718,0 -2.1034354,0 -3.1551528,0 0,-0.2948367 0,-0.5896743 0,-0.884511 z"
     id="path647" />
  <path
     style="fill:none;stroke:#000000;stroke-width:0.05mm"
     d="M -5.550197,8.3954811 C -6.2080401,8.0654746 -6.8765155,7.7542644 -7.5217097,7.4033339 -8.1838946,7.1053355 -8.8052113,6.6011239 -9.5605814,6.5291766 -9.7470217,6.1264099 -8.7616003,5.9083609 -8.507648,5.5906942 c 0.4760615,-0.344117 0.9828394,-0.6448494 1.5095616,-0.9510923 0.4794002,-0.352173 0.9944307,-0.7011145 1.4835585,-1.0192768 0.5039749,-0.3798403 1.0897482,-0.7129527 1.6154021,-1.0615748 0.4644875,-0.43205 1.0425587,-0.6574226 1.568311,-1.0293855 0.6583094,-0.1648191 -0.2444753,0.9096335 -0.2231682,1.2796377 -0.2868176,0.5882071 -0.51973,1.201795 -0.7916865,1.7969196 C -3.4603263,5.43081 -4.1917174,4.705964 -4.6211816,4.5593076 -4.8285135,4.3286186 -5.6982223,3.9374003 -5.0937972,4.4545972 c 0.2931347,0.5210279 1.5250347,0.7597002 1.2256958,1.4154313 -0.3053884,0.5423576 -0.4449213,1.1484776 -0.7411009,1.6932869 -0.1860821,0.3297573 -0.2605765,1.2898455 -0.7871216,0.9033927 l -0.075444,-0.034928 z"
     id="path649" />
  <path
     style="fill:none;stroke:#000000;stroke-width:0.05mm"
     d="M -1.896782,5.807165 C -2.274298,5.5325151 -3.2621362,5.5607145 -3.1442913,4.9801904 c 0.3184445,-0.6251616 0.5729318,-1.3559042 0.9046495,-1.9751227 0.1822745,-0.3413573 0.2657586,-1.1540633 0.6128015,-1.1917626 0.068981,1.3319287 0.045585,2.6719394 -0.00326,4.0052878 -0.00533,0.1677549 -0.2262813,0.08952 -0.2666803,-0.011428 z"
     id="path651" />
</svg>
