<?xml version="1.0" encoding="UTF-8" standalone="no"?>
<svg
   width="7.4720001mm"
   height="18mm"
   viewBox="-13.787457 1.94253 7.472013 17.999998"
   version="1.1"
   id="svg352"
   sodipodi:docname="corn-smooth.svg"
   inkscape:version="1.2.2 (732a01da63, 2022-12-09)"
   xmlns:inkscape="http://www.inkscape.org/namespaces/inkscape"
   xmlns:sodipodi="http://sodipodi.sourceforge.net/DTD/sodipodi-0.dtd"
   xmlns="http://www.w3.org/2000/svg"
   xmlns:svg="http://www.w3.org/2000/svg">
  <defs
     id="defs356" />
  <sodipodi:namedview
     id="namedview354"
     pagecolor="#ffffff"
     bordercolor="#666666"
     borderopacity="1.0"
     inkscape:showpageshadow="2"
     inkscape:pageopacity="0.0"
     inkscape:pagecheckerboard="0"
     inkscape:deskcolor="#d1d1d1"
     inkscape:document-units="mm"
     showgrid="false"
     inkscape:zoom="9.0270283"
     inkscape:cx="31.294906"
     inkscape:cy="27.029936"
     inkscape:window-width="1920"
     inkscape:window-height="1017"
     inkscape:window-x="1912"
     inkscape:window-y="-8"
     inkscape:window-maximized="1"
     inkscape:current-layer="svg352" />
  <path
     style="fill:none;stroke:#000000;stroke-width:0.0499997mm"
     d="m -12.524242,19.473782 c 0.387027,-0.03249 0.133109,-0.775088 0.576832,-0.72982 0.363619,0.0322 0.701214,-0.03171 0.9883,-0.260914 0.419541,-0.474208 0.884252,-0.928824 1.2559026,-1.439302 0.3117975,-0.460088 0.3422882,-1.027348 0.6587542,-1.479812 0.2960183,-0.427832 0.784033,-0.744378 1.2894328,-0.787978 0.2589404,-0.214065 0.6866244,0.04825 0.8447784,-0.342523 -0.2470115,-0.494946 -1.1491619,-0.521718 -1.20701,-0.910491 0.2456714,-0.495037 0.3647346,-1.045857 0.64561,-1.531185 0.057796,-0.200687 0.034124,-0.03483 0.2799286,-0.674605 0.064882,-0.598969 0.2882997,-1.150886 0.3937514,-1.7432776 0.1471326,-0.4332181 0.1830282,-0.8860307 0.2807,-1.3344955 0.2144321,-0.4551116 0.044392,-1.0195064 0.1899741,-1.5080577 0.023457,-0.6156891 0.02742,-1.2398415 -0.077694,-1.8423548 C -6.4548909,4.4842557 -6.6678445,4.1347366 -6.8341582,3.7604232 -6.9599895,3.4675862 -7.1434581,3.2523422 -7.480755,3.236919 c -0.2833244,0.01787 -0.5469964,0.205563 -0.7593509,0.3194918 -0.3891226,0.3054943 -0.8290104,0.5496748 -1.0825114,0.9994931 -0.3442161,0.4126326 -0.5257411,0.7831181 -0.8523317,1.1448136 -0.131626,0.4424477 -0.488054,0.7904691 -0.651058,1.2156218 -0.192861,0.4319364 -0.457388,0.8183452 -0.534004,1.2880829 -0.306845,0.5045386 -0.462021,1.0624655 -0.630901,1.6273131 -0.139334,0.4969527 -0.259528,0.9972747 -0.427646,1.4803107 0.06775,0.866448 -0.811708,0.168168 -1.215381,0.170481 -0.401782,0.05886 0.154151,0.639588 0.239527,0.852167 -0.04773,0.403518 0.131913,0.750934 0.09045,1.15332 -0.0679,0.401062 -0.111116,0.808 -0.09045,1.228335 0.08659,0.253747 -0.119139,0.379009 -0.19649,0.560698 0.05876,0.397566 -0.120944,0.730983 -0.19649,1.094999 0.194574,0.458295 0.08725,1.034221 0.380612,1.439679 0.263346,0.415613 0.36154,0.829878 0.09811,1.284207 0.08714,0.279721 0.542632,0.491652 0.784431,0.377849 z"
     id="path332"
     sodipodi:nodetypes="ccccccccccccccccccccccccccccccccc" />
  <path
     style="fill:none;stroke:#000000;stroke-width:0.0499997mm"
     d="m -10.778757,17.735167 c -0.299643,-0.350323 0.452349,-0.785041 0.42994,-0.236436 -0.03608,0.134241 -0.394458,0.598344 -0.42994,0.236436 z"
     id="path334" />
  <path
     style="fill:none;stroke:#000000;stroke-width:0.0499997mm"
     d="m -10.868112,14.59059 c -0.19027,-0.428745 -0.243998,-0.886032 -0.464822,-1.308131 -0.123872,-0.445132 -0.642976,-0.724407 -0.715123,-1.178408 -0.121912,-0.343075 0.178094,-0.767497 0.197495,-1.151531 0.17696,-0.45207 0.243564,-0.9539889 0.494879,-1.3889218 0.171838,-0.7393666 0.517441,-1.4107883 0.866516,-2.1037774 0.277948,-0.572029 0.5607256,-1.1250627 0.8965736,-1.6706896 0.2250601,-0.4159744 0.5350419,-0.8046235 0.8661438,-1.1584882 0.3456018,-0.3042472 0.7304064,-0.6683102 1.1932546,-0.6985233 0.4033566,0.1765839 0.5777005,0.6556635 0.5473372,1.0861138 0.2873181,0.5208762 0.1648105,1.1644826 0.1842565,1.7535635 -0.2116309,0.5169582 -0.112584,1.1129188 -0.3051307,1.6297162 -0.1187047,0.4217236 -0.130752,0.8800335 -0.2807,1.295104 -0.1331787,0.4843298 -0.2469461,0.9733658 -0.39298,1.4523938 -0.164763,0.406348 -0.2490721,0.849699 -0.4648215,1.236148 -0.1965032,0.453887 -0.2582813,1.054022 -0.719179,1.331228 -0.4177343,0.07606 -0.8086129,0.237811 -1.1738795,0.4662 -0.24775,0.03314 -0.550819,0.671335 -0.72982,0.408003 z"
     id="path336" />
  <path
     style="fill:none;stroke:#000000;stroke-width:0.0499997mm"
     d="m -10.999105,12.634059 c 0.421893,-0.370497 0.04084,-0.951128 -0.490592,-0.75624 -0.423087,0.252804 0.05994,0.994128 0.490592,0.75624 z"
     id="path338" />
  <path
     style="fill:none;stroke:#000000;stroke-width:0.0499997mm"
     d="m -9.4281336,11.849047 c 0.4344809,-0.512484 -0.4493978,-1.145176 -0.6782464,-0.442837 -0.04859,0.447479 0.3180926,0.521646 0.6782464,0.442837 z"
     id="path340" />
  <path
     style="fill:none;stroke:#000000;stroke-width:0.0499997mm"
     d="m -10.393729,10.564939 c 0.327889,-0.01035 0.260575,-0.639105 -0.0053,-0.6937674 -0.643983,-0.3230688 -0.817851,0.9503904 -0.07062,0.7248124 z"
     id="path342" />
  <path
     style="fill:none;stroke:#000000;stroke-width:0.0499997mm"
     d="m -8.650582,9.6913858 c 0.6236921,-0.1284351 0.401817,-0.9296077 -0.1852637,-0.7415555 -0.408853,-0.02469 -0.2284454,0.9699956 0.1852637,0.7415555 z"
     id="path344" />
  <path
     style="fill:none;stroke:#000000;stroke-width:0.0499997mm"
     d="m -9.6681194,8.5836456 c 0.3691909,-0.3844745 -0.07321,-0.9653334 -0.5404586,-0.6300381 -0.299267,0.3355089 0.153488,0.9617826 0.5404586,0.6300381 z"
     id="path346" />
  <path
     style="fill:none;stroke:#000000;stroke-width:0.0499997mm"
     d="m -8.1804095,7.8693088 c 0.4073454,-0.4734343 -0.2429843,-0.6346796 -0.6212253,-0.536589 -0.1847113,0.3094471 0.08138,0.9183109 0.5493459,0.6068238 z"
     id="path348" />
  <path
     style="fill:none;stroke:#000000;stroke-width:0.0499997mm"
     d="M -8.744943,6.4914058 C -8.0967831,6.3776311 -8.389652,5.4676805 -8.9437431,5.723314 -9.3779967,5.9756527 -9.1319045,6.4993898 -8.744943,6.4914058 Z"
     id="path350" />
</svg>
