<?xml version="1.0" encoding="UTF-8" standalone="no"?>
<svg
   width="12.318mm"
   height="15.998mm"
   viewBox="-15.710689 2.407617 12.318522 15.99808"
   version="1.1"
   id="svg1203"
   sodipodi:docname="cotton.svg"
   inkscape:version="1.2.2 (732a01da63, 2022-12-09)"
   xmlns:inkscape="http://www.inkscape.org/namespaces/inkscape"
   xmlns:sodipodi="http://sodipodi.sourceforge.net/DTD/sodipodi-0.dtd"
   xmlns="http://www.w3.org/2000/svg"
   xmlns:svg="http://www.w3.org/2000/svg">
  <defs
     id="defs1207" />
  <sodipodi:namedview
     id="namedview1205"
     pagecolor="#ffffff"
     bordercolor="#666666"
     borderopacity="1.0"
     inkscape:showpageshadow="2"
     inkscape:pageopacity="0.0"
     inkscape:pagecheckerboard="0"
     inkscape:deskcolor="#d1d1d1"
     inkscape:document-units="mm"
     showgrid="false"
     inkscape:zoom="11.775684"
     inkscape:cx="16.219865"
     inkscape:cy="28.405994"
     inkscape:window-width="958"
     inkscape:window-height="1008"
     inkscape:window-x="-7"
     inkscape:window-y="0"
     inkscape:window-maximized="0"
     inkscape:current-layer="svg1203" />
  <path
     style="fill:none;stroke:#000000;stroke-width:0.0499997mm"
     d="m -9.7178859,17.913735 c 0.07877,-0.693059 -0.0736,-1.424366 0.115658,-2.090579 0.08634,-0.42655 -0.137265,-1.162546 0.127561,-1.405583 0.4666968,0.246244 0.7607082,0.767674 1.344561,0.756139 0.6290549,0.07925 1.1604721,-0.228265 1.5972682,-0.639008 -0.2616386,-0.256409 -0.8854093,-0.228541 -1.1979796,-0.56101 0.4613004,-0.373541 0.8991024,0.265284 1.4222566,0.07809 0.2071173,-0.04396 0.5033802,0.101839 0.6359583,-0.100785 0.5170389,-0.247298 1.0784013,-0.64091 1.2102272,-1.21009 0.1749644,-0.159425 0.041186,-0.460624 0.083062,-0.681163 0.034864,-0.470656 -0.02446,-0.916987 -0.17038,-1.34147 C -4.40822,10.248017 -4.050944,9.8398528 -3.8630033,9.3912849 -3.6553608,8.9386259 -3.6555642,8.4915845 -3.8636098,8.117569 -4.1445913,7.7008399 -4.2850094,7.1522432 -4.7385799,6.8220546 -5.3686527,6.67289 -5.2040226,6.0609429 -5.3675169,5.5967675 -5.4575133,5.1136455 -5.8113953,4.6322378 -6.2854415,4.4464026 -6.6911013,4.1487539 -7.330655,4.3348283 -7.5501426,3.7357347 -7.9085145,3.298793 -8.3819374,3.0931473 -8.8891727,2.9690412 c -0.5757188,-0.057236 -1.1990893,-0.08839 -1.7020013,0.1784269 -0.622253,0.1740729 -1.108649,0.7160231 -1.399811,1.2801229 -0.184576,0.4466627 -0.19355,1.0070763 -0.781014,1.1051971 -0.541453,0.2512648 -1.003232,0.7697687 -1.101084,1.3596191 -0.163344,0.348882 -0.04994,0.7746163 -0.08159,1.1567626 -0.347646,0.32935 -0.914756,0.5076602 -1.056356,1.013775 -0.262671,0.4679051 -0.156161,1.0046572 -0.08721,1.4876082 0.423675,0.503781 0.01971,0.966992 0.08721,1.562542 -0.05371,0.64241 0.199937,1.256229 0.690889,1.674964 0.255876,0.334122 0.949685,0.148646 1.008443,0.515219 -0.446342,0.216859 -0.947398,0.08329 -1.368036,0.123736 0.02024,0.436187 0.71134,0.631503 1.078143,0.800396 0.534279,0.06092 1.165921,0.133289 1.671143,-0.06112 0.370837,-0.191904 0.743424,-0.425523 1.1364,-0.603358 0.8834331,-0.42405 0.572304,0.83314 0.630677,1.321421 0.0025,0.64428 0.0055,1.288558 0.0082,1.932837 0.1619531,-0.0064 0.2679251,0.195067 0.4373091,0.09655 z"
     id="path1199"
     sodipodi:nodetypes="cccccccccccccccccccccccccccccccccccc" />
  <path
     style="fill:none;stroke:#000000;stroke-width:0.0499997mm"
     d="m -9.1697902,13.340078 c 0.058339,-0.37364 0.1229871,-0.943274 0.085639,-1.410679 0.010683,-0.597673 -0.2574704,-1.118224 -0.1732182,-1.727157 -0.1926177,-0.657759 -0.3730845,0.483521 -0.5400275,0.676378 -0.169231,0.392539 -0.5226201,0.684049 -0.8238991,0.990831 0.04028,0.468792 -0.102581,0.922806 -0.06208,1.39465 -0.295707,0.114801 -0.756287,-0.175479 -1.034603,-0.353859 -0.347922,-0.123005 -0.623871,0.246828 -0.964038,0.304661 -0.23901,0.127881 -0.660802,0.129823 -0.911919,0.03317 -0.390741,-0.253839 -0.565748,-0.622141 -0.602908,-1.06844 0.01016,-0.50569 0.329934,-0.909734 0.333224,-1.397391 -0.538994,-0.22846 -0.545738,-0.9012387 -0.403829,-1.3832168 0.27537,-0.4033007 0.773672,-0.4824415 1.193401,-0.5933224 0.03916,-0.5121821 -0.316627,-1.0887125 -0.04778,-1.623426 0.100891,-0.5660184 0.606542,-0.9355239 1.133622,-1.0512149 0.688579,0.066917 0.446213,-0.6668227 0.636998,-1.0761395 0.145339,-0.4358334 0.479064,-0.8655362 0.906204,-1.0896333 0.4701071,-0.1760985 0.9059821,-0.3021858 1.3737389,-0.1603702 0.3672412,0.1837167 0.8187621,0.3641835 1.0287841,0.7196398 0.1757231,0.3737558 0.2417781,0.7325214 0.817045,0.5092447 0.5924096,-0.1100137 1.0707688,0.5070482 1.091211,1.0441977 0.1510146,0.4120889 -0.526726,1.0398601 0.1786922,1.1478681 0.5204798,0.078366 0.9293356,0.5372698 1.2013858,0.9650378 0.108576,0.3487165 0.049949,0.7776007 -0.051114,1.136637 -0.1753861,0.3642861 -0.3909103,0.745282 -0.8013135,0.897912 -0.3446423,0.426396 0.4877823,0.807271 0.3583255,1.326458 0.1871205,0.596439 -0.1148194,1.252035 -0.6493468,1.566351 -0.4243975,0.311704 -0.8781549,-0.03024 -1.3440644,-0.06212 -0.4469228,-0.0236 -0.9043468,0.04174 -1.3132022,0.233988 -0.2284622,-0.07069 -0.4453205,0.160736 -0.6149259,0.04994 z"
     id="path1201"
     sodipodi:nodetypes="ccccccccccccccccccccccccccccccc" />
</svg>
