<?xml version="1.0" encoding="UTF-8" standalone="no"?>
<svg
   width="16mm"
   height="8.2749996mm"
   viewBox="0.28881 -7.713923 16.000001 8.2747936"
   version="1.1"
   id="svg1"
   sodipodi:docname="fish.svg"
   inkscape:version="1.3.2 (091e20e, 2023-11-25, custom)"
   xmlns:inkscape="http://www.inkscape.org/namespaces/inkscape"
   xmlns:sodipodi="http://sodipodi.sourceforge.net/DTD/sodipodi-0.dtd"
   xmlns="http://www.w3.org/2000/svg"
   xmlns:svg="http://www.w3.org/2000/svg">
  <defs
     id="defs1" />
  <sodipodi:namedview
     id="namedview1"
     pagecolor="#ffffff"
     bordercolor="#000000"
     borderopacity="0.25"
     inkscape:showpageshadow="2"
     inkscape:pageopacity="0.0"
     inkscape:pagecheckerboard="0"
     inkscape:deskcolor="#d1d1d1"
     inkscape:document-units="mm"
     inkscape:zoom="11.050704"
     inkscape:cx="27.690543"
     inkscape:cy="16.107571"
     inkscape:window-width="1500"
     inkscape:window-height="938"
     inkscape:window-x="-6"
     inkscape:window-y="-6"
     inkscape:window-maximized="1"
     inkscape:current-layer="svg1" />
  <path
     style="fill:none;stroke:#000000;stroke-width:0.05mm"
     d="m 10.677099,-0.06750153 c 0.342956,-0.0730341 0.85739,-0.18097528 1.143186,-0.23987056 0.809506,-0.16681662 2.161215,-0.77932131 2.93418,-1.32957351 0.872359,-0.6210093 1.059126,-0.8384021 1.063513,-1.2379122 0.0042,-0.3788019 -0.527654,-0.9733293 -1.114397,-1.24581 -0.21399,-0.099376 -0.461266,-0.2433823 -0.549503,-0.3200154 -0.197152,-0.1712239 -2.397604,-1.2872526 -2.541645,-1.2890746 -0.05716,-7.275e-4 -0.230873,-0.067541 -0.38603,-0.148485 -0.155157,-0.080943 -0.57409,-0.2508366 -0.930963,-0.3775409 C 9.9385677,-6.3824879 9.4229513,-6.6433404 9.1496271,-6.8354556 8.8763027,-7.0275711 8.5674101,-7.1847563 8.4631995,-7.1847563 c -0.2312019,0 -0.623066,0.4062672 -1.0264232,1.0641489 -0.2565267,0.4183986 -0.4421358,0.5640653 -1.2328179,0.9675203 -0.511953,0.2612299 -1.0243996,0.5618083 -1.1387702,0.6679512 -0.4563744,0.4235465 -1.4328703,0.8338636 -1.9844753,0.8338636 -0.5172272,0 -0.5589192,-0.022741 -1.2449981,-0.6790946 -0.99842228,-0.9551658 -1.37227321,-0.8066701 -0.620273,0.2463759 0.7488565,1.0486423 0.9600559,1.7413893 0.6947495,2.278815 -0.2820521,0.5713463 -0.4866803,0.92396549 -0.6065818,1.04527319 -0.1539445,0.1557487 -0.1864401,0.8499665 -0.039787,0.8499665 0.1690887,0 0.7134177,-0.51372451 1.0947419,-1.0331928 0.203562,-0.27730779 0.4339503,-0.52869189 0.5119717,-0.55863239 0.078025,-0.02994 0.9056133,0.202263 1.8390911,0.51600649 1.7411835,0.58521409 2.0050101,0.65395314 3.5252105,0.91847796 1.0392798,0.18084132 1.5922462,0.1807905 2.4422613,-2.2448e-4 z"
     id="path1" />
</svg>
