<?xml version="1.0" encoding="UTF-8" standalone="no"?>
<svg
   width="15mm"
   height="11.415mm"
   viewBox="-17.511393 4.776803 15 11.414637"
   version="1.1"
   id="svg1353"
   sodipodi:docname="fruit.svg"
   inkscape:version="1.2.2 (732a01da63, 2022-12-09)"
   xmlns:inkscape="http://www.inkscape.org/namespaces/inkscape"
   xmlns:sodipodi="http://sodipodi.sourceforge.net/DTD/sodipodi-0.dtd"
   xmlns="http://www.w3.org/2000/svg"
   xmlns:svg="http://www.w3.org/2000/svg">
  <defs
     id="defs1357" />
  <sodipodi:namedview
     id="namedview1355"
     pagecolor="#ffffff"
     bordercolor="#666666"
     borderopacity="1.0"
     inkscape:showpageshadow="2"
     inkscape:pageopacity="0.0"
     inkscape:pagecheckerboard="0"
     inkscape:deskcolor="#d1d1d1"
     inkscape:document-units="mm"
     showgrid="false"
     inkscape:zoom="11.990719"
     inkscape:cx="15.261804"
     inkscape:cy="16.471073"
     inkscape:window-width="958"
     inkscape:window-height="1008"
     inkscape:window-x="-7"
     inkscape:window-y="0"
     inkscape:window-maximized="0"
     inkscape:current-layer="svg1353" />
  <path
     style="fill:none;stroke:#000000;stroke-width:0.0500002mm"
     d="m -9.166499,15.671416 c 0.3785632,-0.137382 0.7562932,-0.245366 1.0941699,-0.50051 0.2923323,-0.09732 0.9247869,-0.99899 0.2887585,-0.587339 -0.3817287,-0.307638 0.045347,-0.588184 0.2875799,-0.83411 0.4140668,0.03309 0.8454911,0.0052 0.9627598,-0.470061 0.138773,-0.452627 1.010162,-0.02128 1.2106499,0.311617 0.1771071,0.235001 0.7295196,1.072584 0.886134,0.602081 -0.2347116,-0.222782 -0.6524609,-0.830247 -0.043521,-0.698412 0.5012412,-0.0081 1.029056,0.235172 1.525305,0.0054 0.4951671,0.03308 0.550101,-0.48549 0.020493,-0.340213 -0.6139515,0.0275 -1.2140007,-0.01041 -1.7949552,-0.166086 -0.4434722,-0.06865 -0.8370474,-0.303894 -1.2756562,-0.387473 -0.5677312,-0.103952 -0.239934,-0.792846 -0.3605444,-1.203564 C -6.5471186,11.078527 -6.5421113,10.680415 -6.768157,10.369518 -7.0195538,9.8121003 -7.5113851,9.3742412 -7.9968128,9.0061706 -8.4994606,8.7713657 -9.0050245,8.5855435 -9.5401282,8.464696 -9.9922534,8.5031338 -10.42416,8.4414623 -10.804597,8.2956927 c -0.701543,0.018607 -1.415552,-0.047162 -2.107258,0.049281 -0.403765,-0.027279 -0.690759,0.4871729 -1.00403,0.090862 -0.501259,-0.4103787 -1.042281,-0.7771223 -1.506119,-1.2361985 -0.46235,-0.2166179 -0.559949,-0.5999972 -0.680746,-0.9409401 -0.101101,-0.5130693 -0.493415,-0.4113751 -0.372442,0.037518 0.158077,0.4960263 0.751722,0.9443923 0.287485,1.459661 -0.303094,0.4129166 -0.539409,0.8576458 -0.732336,1.3118898 -0.151535,0.4645887 -0.413188,0.9284524 -0.422766,1.4460101 -0.03469,0.770413 0.05355,1.5572 -0.05573,2.317526 -0.11392,0.222307 -0.175421,0.883285 0.09947,0.337141 0.38996,-0.377961 0.887362,-0.631138 1.218796,-1.082299 0.300818,-0.496628 0.526302,-1.001904 0.619414,-1.587428 0.140425,-0.5222479 0.344484,-1.061723 0.09426,-1.5831574 0.127282,-0.2848245 -0.480633,-1.0351093 -0.0185,-0.9910179 0.448917,0.3537754 0.876781,0.764073 1.353993,1.0610902 0.389362,0.2864021 0.861274,0.4756566 1.193513,0.8238627 -0.550779,0.5929094 -0.771828,1.3108554 -0.829907,2.0186284 -0.04026,0.979715 0.142914,1.647882 0.622322,2.429521 0.328822,0.38303 0.643629,0.76891 1.116681,0.96613 0.445142,0.286091 0.955285,0.501653 1.504356,0.495987 0.416388,-0.01811 0.8519916,0.04415 1.257639,-0.04834 z"
     id="path1347"
     sodipodi:nodetypes="scccccccccccccccccccccccccccccccccccccs" />
  <path
     style="fill:none;stroke:#000000;stroke-width:0.0500002mm"
     d="m -12.660904,9.3634477 c -0.352396,-0.185795 -0.907241,-0.5931175 -0.197525,-0.7069888 0.384516,-0.098517 1.129857,-0.2502335 0.702216,0.318783 0.04057,0.1927758 -0.349089,0.5064822 -0.504691,0.3882058 z"
     id="path1349"
     sodipodi:nodetypes="cccc" />
  <path
     style="fill:none;stroke:#000000;stroke-width:0.0500002mm"
     d="m -13.174687,7.7536017 c 0.40109,-0.04073 0.73957,-0.2286592 1.064298,-0.4619069 0.587078,-0.1586207 1.013692,-0.6638162 1.387905,-1.1361269 0.540272,-0.4798299 -0.547803,-0.4434653 -0.835513,-0.6259087 -0.835027,-0.1471062 -1.577132,-0.3830525 -2.352818,-0.1969245 -0.301057,0.1903388 -0.608352,0.3282028 -0.886907,0.5515979 -0.263167,0.118929 -1.008048,0.5928794 -0.695603,0.816066 0.270758,0.5079481 0.874515,0.6799881 1.354454,0.9198368 0.268996,0.1258252 0.65266,0.2634016 0.964184,0.1333663 z"
     id="path1351"
     sodipodi:nodetypes="ccccccccc" />
</svg>
