<?xml version="1.0" encoding="UTF-8" standalone="no"?>
<svg
   width="15.000mm"
   height="7.311mm"
   viewBox="-17.511395 6.298089 15.000001 7.311113"
   version="1.1"
   id="svg1549"
   sodipodi:docname="imports.svg"
   inkscape:version="1.2.2 (732a01da63, 2022-12-09)"
   xmlns:inkscape="http://www.inkscape.org/namespaces/inkscape"
   xmlns:sodipodi="http://sodipodi.sourceforge.net/DTD/sodipodi-0.dtd"
   xmlns="http://www.w3.org/2000/svg"
   xmlns:svg="http://www.w3.org/2000/svg">
  <defs
     id="defs1553" />
  <sodipodi:namedview
     id="namedview1551"
     pagecolor="#ffffff"
     bordercolor="#666666"
     borderopacity="1.0"
     inkscape:showpageshadow="2"
     inkscape:pageopacity="0.0"
     inkscape:pagecheckerboard="0"
     inkscape:deskcolor="#d1d1d1"
     inkscape:document-units="mm"
     showgrid="false"
     inkscape:zoom="17.081567"
     inkscape:cx="10.888931"
     inkscape:cy="19.172714"
     inkscape:window-width="958"
     inkscape:window-height="1008"
     inkscape:window-x="-7"
     inkscape:window-y="0"
     inkscape:window-maximized="0"
     inkscape:current-layer="svg1549" />
  <path
     style="fill:none;stroke:#000000;stroke-width:0.0500006mm"
     d="m -4.4823221,13.513522 c 0.4430177,-0.136226 0.5946459,-0.600696 0.9227327,-0.838952 0.4307599,-0.210654 0.6072954,-0.693117 0.8773525,-1.044913 0.073023,-0.264067 0.2548574,-0.672314 0.1099708,-0.913446 -0.5172882,-0.01056 -1.0190867,0.0099 -1.5363749,-6.91e-4 0.00979,-1.3673825 0.1569552,-1.3706237 -0.5258389,-1.3561126 -0.040248,-0.2092438 0.017633,-0.8982457 0.015408,-1.1093979 0.013009,-0.3988053 0.00431,-0.070533 0.00602,-0.5058094 -0.2412047,-0.00529 -0.5974141,-0.018804 -0.8386188,-0.024099 -0.018433,0.4485151 -0.019813,0.8502587 -0.048543,1.3494346 -0.00811,0.1826004 0.0031,0.00849 -0.00718,0.3272985 -0.6388216,0.00308 -0.4560468,0.069558 -0.5126166,1.3458698 -0.4883227,0.0019 -0.9495989,-0.0076 -1.4088736,-0.01101 -0.2874648,0.07849 -0.3289911,-0.08897 -0.2881318,-0.338806 0.00874,-1.2573749 0.1382237,-1.1080129 -0.7623985,-1.1001429 0.020599,-0.6868365 0.012376,-0.5765991 0.018038,-0.8904036 0.00184,-0.4703657 -9.777e-4,-0.011906 -0.00331,-0.4974048 -0.2462947,-0.036299 -0.9064571,-0.00198 -1.1234279,-0.01176 -0.212319,0.00228 -0.4246379,0.00456 -0.6369569,0.00685 -0.02178,0.4171196 0.0292,0.8447673 -0.06379,1.2527689 -0.170785,0.2327809 -0.622744,-0.1131643 -0.618816,0.34358 -0.01771,0.3961804 0.02557,0.8029794 -0.06006,1.1897474 -0.611736,0.08951 -1.242442,0.02832 -1.862474,0.04558 -0.0174,-0.464876 -0.02339,-0.9352239 -0.04303,-1.3967229 0.0044,-0.2856859 -0.619897,0.1094906 -0.621757,-0.3452705 -0.0052,-0.8972002 -0.01032,-1.7944005 -0.01548,-2.6916009 h -0.840092 c -0.0056,0.9762537 -0.01123,1.9525072 -0.01684,2.928761 -0.445628,-0.00691 -0.447624,-0.015209 -0.928188,-0.018 -0.0084,-0.5408315 0.0299,-1.2027541 -0.01227,-1.7338463 -0.665376,-0.0046 -0.09852,0.00105 -0.701863,-0.00535 -0.0012,0.1838785 -0.02326,0.4966318 -0.03097,0.8091227 -0.0031,0.316024 -0.0064,0.632047 -0.0095,0.9480707 -0.649805,0.00291 -0.650986,-0.042072 -0.663457,0.7412018 6.4e-5,0.2545444 1.6e-5,0.5090884 3.2e-5,0.7636324 -0.270321,0.04322 -0.818426,-0.15552 -0.779344,0.269184 0.164386,0.325642 0.247079,0.667922 0.407181,0.992934 0.16172,0.320901 0.298873,0.625527 0.396456,0.973485 0.170881,0.502516 0.536063,0.740329 1.094016,0.621086 3.677823,0.02002 7.3557509,0.01365 11.033622,0.02091 0.026462,-0.03192 0.052924,-0.06385 0.079387,-0.09578 z"
     id="path1547"
     sodipodi:nodetypes="cccccccccccccccccccccccccccccccccccccccccc" />
</svg>
