<?xml version="1.0" encoding="UTF-8" standalone="no"?>
<svg xmlns="http://www.w3.org/2000/svg" xmlns:xlink="http://www.w3.org/1999/xlink" width="15.000mm" height="12.156mm" viewBox="2.479698 -16.056248 15.000000 12.155685">
    <path transform="matrix(-0.053553,0,0,0.053553,21.389103,-18.627769)" style="stroke:#000000;stroke-width:0.933646mm;fill:none" d="M160.256882,273.563171C156.250092,271.346893,154,268.739838,154,266.313629C154,265.006622,153.324997,263.678223,152.5,263.361633C151.481659,262.970856,151,261.375427,151,258.393005C151,255.976852,150.550003,254,150,254C149.449997,254,149,253.284637,149,252.410294C149,250.482086,145.122192,247.079254,142.872452,247.033264C141.977295,247.014969,140.666199,246.302719,139.958923,245.4505C138.663071,243.889099,130.942154,240,129.138199,240C128.603851,240,128.016663,239.64595,127.833344,239.213242C127.650002,238.780518,124.881737,237.093018,121.681633,235.463242C118.481529,233.83345,114.994034,232.055786,113.931633,231.512878C112.869232,230.969955,112,230.182449,112,229.762878C112,229.343292,111.099998,229,110,229C108.900002,229,108,228.602478,108,228.116638C108,227.630783,106.987503,226.903809,105.75,226.50116C104.512497,226.098495,103.275002,225.64798,103,225.5C102.724998,225.35202,101.487503,224.901505,100.25,224.49884C99.012497,224.096191,98,223.369217,98,222.883362C98,222.397522,97.099998,222,96,222C94.900002,222,94,221.659851,94,221.24411C94,220.505096,91.299263,219.140945,85.724373,217.064056C84.197777,216.495331,82.687134,215.348267,82.367386,214.515015C82.047638,213.681747,80.787605,213,79.567322,213C78.347038,213,76.370186,211.958496,75.174316,210.685547C73.006973,208.37851,73,208.223679,73,162.385544C73,127.952347,73.30146,116.098541,74.199997,115.199997C75.060509,114.339493,81.615837,114,97.371262,114C116.445633,114,119.584541,113.780968,121.178146,112.338783C123.312218,110.407471,126.752777,108.302078,129.25,107.399353C130.212494,107.051407,131,106.237923,131,105.591583C131,103.607964,139.242157,96.426353,144,94.264359C146.475006,93.139702,149.399994,91.218491,150.5,89.995003C151.600006,88.771515,153.399994,87.352798,154.5,86.8423C160.360825,84.12236,165,80.445053,165,78.519325C165,76.776093,169.368958,73,171.38588,73C172.352219,73,173.817856,72.324997,174.642853,71.5C175.46785,70.675003,176.919388,70,177.868484,70C178.817581,70,181.333557,68.218636,183.459564,66.04142C185.585556,63.864197,187.641739,62.278584,188.028854,62.517834C188.41597,62.757088,189.537598,62.06345,190.521347,60.976418C191.505096,59.889389,192.915237,59,193.654984,59C194.394745,59,195,58.613888,195,58.141972C195,57.158836,204.569275,52,206.392929,52C208.160339,52,212.983093,49.624893,212.992203,48.75C213.008423,47.190582,216.034775,48.082809,217.232071,50C217.919037,51.099998,219.055801,52,219.758209,52C220.460632,52,222.489883,53.480576,224.26767,55.290169C227.705612,58.789623,234.641205,62.5881,236.797623,62.15255C237.511322,62.008396,239.379364,63.265102,240.948837,64.945229C243.670044,67.858292,248,69.120079,248,67C248,66.449997,249.955261,66,252.345016,66C255.420029,66,257.219055,66.584572,258.5,68C259.495483,69.099998,261.535126,70,263.032532,70C264.529968,70,266.315308,70.675003,267,71.5C267.684692,72.324997,269.57193,73,271.193878,73C274.463074,73,276.380829,74.473785,277.435455,77.796638C277.820068,79.008492,278.84137,80,279.705017,80C280.568665,80,282.620575,81.574997,284.264893,83.5C285.90918,85.425003,287.80249,87,288.47226,87C289.142029,87,290.504517,87.900002,291.5,89C292.495483,90.099998,293.915222,91,294.654999,91C295.394745,91,296,91.98703,296,93.193405C296,94.539688,298.124176,97.444221,301.5,100.713966C304.524994,103.643921,307,106.706886,307,107.520576C307,108.334259,307.461151,109,308.02475,109C308.588379,109,309.477234,110.125,310,111.5L310.9505,114L330.775238,114C344.861176,114,350.947388,114.347366,351.799988,115.199997C353.542999,116.942993,353.516602,204.506622,351.771973,208.203461C351.096527,209.634674,349.071533,211.383377,347.271973,212.089478C345.472382,212.795578,344,213.739304,344,214.186646C344,214.633987,343.100006,215,342,215C340.899994,215,340,215.449997,340,216C340,216.550003,339.553101,217,339.006866,217C337.299194,217,330,220.4328,330,221.235901C330,221.656158,329.265289,222,328.36731,222C327.469299,222,325.918182,222.941315,324.92038,224.091812C323.922546,225.24231,322.598938,225.870178,321.979034,225.487045C321.359131,225.103928,319.872772,225.673508,318.675964,226.752777C317.479187,227.832062,315.037506,229.33905,313.25,230.101669C311.462494,230.864273,310,231.828369,310,232.24411C310,232.659851,309.482361,233,308.84967,233C307.272614,233,296.579712,238.238312,296.166656,239.213242C295.983337,239.64595,295.250946,240,294.539124,240C293.827301,240,292.684692,240.675003,292,241.5C291.315308,242.324997,289.97934,243,289.031189,243C286.71582,243,281.688568,245.573196,279.765625,247.742569C278.737274,248.902725,278.084534,252.063324,277.844971,257.042267C277.500397,264.204712,277.29538,264.771301,273.774384,268.292267C271.735138,270.331512,269.656769,272,269.155792,272C268.654785,272,267.684692,272.674988,267,273.5C266.066589,274.624695,263.560638,275,256.984558,275C250.110977,275,248.089478,274.675568,247.638367,273.5C247.321793,272.674988,246.461914,272,245.727554,272C243.60202,272,238,265.622253,238,263.202393C238,261.991089,237.550003,261,237,261C236.449997,261,236,259.424988,236,257.5L236,254L230.059021,254C226.791473,254,223.83992,253.550003,223.5,253C222.543137,251.451767,196.159805,251.697342,194.588028,253.269119C193.890015,253.967117,193.001999,256.927277,192.614655,259.84726C192.058731,264.037964,191.18959,265.877075,188.488525,268.578156C186.606506,270.460175,184.656769,272,184.155777,272C183.654785,272,182.684692,272.674988,182,273.5C180.423843,275.39917,163.6642,275.447845,160.256882,273.563171z"/>
    <path transform="matrix(-0.053553,0,0,0.053553,21.389103,-18.627769)" style="stroke:#000000;stroke-width:0.933646mm;fill:none" d="M267,234.5C267.684692,233.675003,269.581909,233,271.216064,233C273.346222,233,274.335266,232.433899,274.710266,231C275.035889,229.754807,276.07428,229,277.461639,229C278.687256,229,280.51889,228.084137,281.531921,226.964737C282.544952,225.845337,283.915344,225.137268,284.577209,225.391251C285.239075,225.645233,286.711151,224.986115,287.84848,223.926529C288.98584,222.866928,290.31543,222,290.803192,222C291.290955,222,292.504517,221.100006,293.5,220C294.495483,218.899994,296.31012,218,297.532532,218C298.754944,218,300.315308,217.324997,301,216.5C301.684692,215.675003,303.02005,215,303.967468,215C304.914856,215,306.504517,214.100006,307.5,213C308.495483,211.899994,309.860138,211,310.532532,211C311.204956,211,312.315308,210.324997,313,209.5C313.684692,208.675003,315.215454,208,316.401672,208C317.587921,208,319.207153,207.100006,320,206C320.792847,204.899994,322.412079,204,323.598328,204C324.784546,204,326.315308,203.324997,327,202.5C327.684692,201.675003,329.202301,200.99649,330.372437,200.992203C334.609375,200.976654,335,197.752823,335,162.800629L335,130L329.059021,130C325.791473,130,322.839905,130.449997,322.5,131C322.093781,131.657272,282.528503,132,207.057617,132L92.233261,132L91.630287,134.25C91.298653,135.487503,91.021164,150.492752,91.013657,167.595016C90.998589,201.909302,90.593933,199.698273,97.5,203.036301C99.150002,203.833832,101.227783,205.276917,102.117287,206.243179C103.006813,207.209427,104.639214,208,105.74485,208C106.850487,208,108.315308,208.675003,109,209.5C109.684692,210.324997,111.310966,211,112.613968,211C113.916969,211,115.545113,211.899994,116.232071,213C116.919037,214.100006,118.442749,215,119.618103,215C120.793457,215,122.315308,215.675003,123,216.5C123.684692,217.324997,124.795036,218,125.467461,218C126.13987,218,127.504517,218.899994,128.5,220C129.597961,221.213226,131.579971,222,133.538361,222C135.927948,222,136.902908,222.520706,137.290833,224.00412C137.60701,225.213196,138.372559,225.794266,139.220551,225.468857C139.993652,225.172195,141.455048,225.845337,142.468079,226.964737C143.481125,228.084137,145.159042,229,146.196808,229C147.234558,229,149.049667,229.899994,150.230377,231C151.411087,232.100006,153.137177,233,154.066116,233C154.995056,233,156.315308,233.675003,157,234.5C158.078323,235.799286,165.437637,236,212,236C258.562378,236,265.921692,235.799286,267,234.5z"/>
</svg>
