<?xml version="1.0" encoding="UTF-8" standalone="no"?>
<svg
   width="14.998mm"
   height="9.181mm"
   viewBox="-15.470644 0.291455 14.997829 9.180759"
   version="1.1"
   id="svg1119"
   sodipodi:docname="lead.svg"
   inkscape:version="1.2.2 (732a01da63, 2022-12-09)"
   xmlns:inkscape="http://www.inkscape.org/namespaces/inkscape"
   xmlns:sodipodi="http://sodipodi.sourceforge.net/DTD/sodipodi-0.dtd"
   xmlns="http://www.w3.org/2000/svg"
   xmlns:svg="http://www.w3.org/2000/svg">
  <defs
     id="defs1123" />
  <sodipodi:namedview
     id="namedview1121"
     pagecolor="#ffffff"
     bordercolor="#666666"
     borderopacity="1.0"
     inkscape:showpageshadow="2"
     inkscape:pageopacity="0.0"
     inkscape:pagecheckerboard="0"
     inkscape:deskcolor="#d1d1d1"
     inkscape:document-units="mm"
     showgrid="false"
     inkscape:zoom="13.602368"
     inkscape:cx="21.28306"
     inkscape:cy="15.438489"
     inkscape:window-width="1920"
     inkscape:window-height="1017"
     inkscape:window-x="-8"
     inkscape:window-y="-8"
     inkscape:window-maximized="1"
     inkscape:current-layer="svg1119" />
  <path
     style="fill:none;stroke:#000000;stroke-width:0.0500001mm"
     d="m -9.2324001,9.4133003 c 0.5361547,-0.1700685 1.1420447,-0.15871 1.63479,-0.4708879 0.5974404,-0.1936158 1.1035396,0.1116657 1.6493987,0.2762634 1.1199611,0.2272691 2.1008306,-0.5030398 3.038623,-0.9882439 C -2.3597081,8.0298643 -1.737507,8.6476391 -1.2674348,8.0363913 -0.58010331,7.429724 -0.19106848,6.3020089 -0.70875059,5.4768885 -1.1801294,5.0577544 -1.8156999,4.8428595 -2.2360394,4.3348577 -2.6076145,3.9603096 -2.9972167,3.5870929 -3.411614,3.2861681 -4.3552467,2.7766165 -5.3291435,2.3059844 -6.1292011,1.5806579 -6.6014383,1.2116165 -7.085035,0.8656886 -7.6225004,0.5969073 c -0.4787508,-0.31152004 -1.2545662,-0.518363 -1.6725143,-0.00348 -0.4435078,0.44463 -1.4764523,0.5944158 -2.1197303,1.6013246 -1.375223,1.2734716 -0.742787,0.6195837 -2.228051,1.1118055 -0.580748,0.075814 -1.108264,0.3699762 -1.271154,0.9941034 -0.09237,0.6495792 -0.205161,1.32704 -0.330894,1.9883159 -0.537274,0.7804541 -0.0693,1.9931677 0.852827,2.2161395 0.39197,0.254469 0.948092,0.2825716 1.407605,0.4506593 0.853825,0.3448666 1.796508,0.2690762 2.68786,0.4259673 0.3107512,0.1433823 0.7377327,0.1076501 1.0641519,0.031557 z"
     id="path1113"
     sodipodi:nodetypes="ccccccccccccccccccc" />
  <path
     style="fill:none;stroke:#000000;stroke-width:0.0500001mm"
     d="m -10.781278,8.6929438 c -0.64647,-0.017721 -1.212603,-0.3330954 -1.859315,-0.3875913 -0.55656,-0.2752113 -1.234671,-0.2914131 -1.739465,-0.7028882 -0.556191,-0.3744665 -0.47328,-1.1164576 -0.183517,-1.6125484 0.323185,-0.5677965 0.124892,-1.356066 0.585581,-1.8774815 0.593276,-0.5046905 1.556425,0.013824 2.112282,-0.5814096 0.0505,-0.6620359 0.822811,-0.7862764 1.184198,-1.2633831 0.413799,-0.4207046 1.1135036,-0.1969549 1.3467964,-0.8604927 0.3371818,-0.3808832 0.8179834,-0.71732291 1.2741275,-0.3528756 0.7692372,0.3489598 1.4464629,0.8578118 2.0924233,1.3914741 0.4138441,0.2863831 0.8707256,0.6347076 1.3653608,0.8412528 0.7759595,0.3670203 1.3401729,1.0186364 1.9886416,1.5573445 0.4568196,0.4050405 1.199144,0.4995501 1.3741977,1.1744959 0.4570245,0.5174031 -0.018262,1.4138293 -0.6226523,1.5500664 -0.6047814,-0.023559 -1.3101931,-0.1742929 -1.7703824,0.3411069 -0.5066572,0.3492187 -1.0538661,0.6255949 -1.670717,0.7173587 -0.6611369,0.1218171 -1.2061592,-0.1578065 -1.8021059,-0.3289298 -0.7105835,0.016802 -1.2691796,0.5094679 -1.9900639,0.4645024 -0.5601697,0.011635 -1.1342558,0.045633 -1.6853898,-0.070002 z"
     id="path1115"
     sodipodi:nodetypes="ccccccccccccccccccc" />
  <path
     style="fill:none;stroke:#000000;stroke-width:0.0500001mm"
     d="M -7.3454905,6.6931945 C -7.2907465,6.4397278 -7.1749988,5.9836461 -7.584205,6.1057913 l -1.081352,-0.031743 -0.038555,-2.2855274 -0.6623652,0.042583 c 0.00629,0.9688216 -0.097854,1.9475181 0.041398,2.908818 0.6594711,-0.010982 1.3241396,0.031383 1.9795887,-0.046727 z"
     id="path1117"
     sodipodi:nodetypes="ccccccc" />
</svg>
