<?xml version="1.0" encoding="UTF-8" standalone="no"?>
<svg
   width="14.994mm"
   height="14.904mm"
   viewBox="-17.497122 2.547842 14.994244 14.904312"
   version="1.1"
   id="svg1686"
   sodipodi:docname="machinery.svg"
   inkscape:version="1.2.2 (732a01da63, 2022-12-09)"
   xmlns:inkscape="http://www.inkscape.org/namespaces/inkscape"
   xmlns:sodipodi="http://sodipodi.sourceforge.net/DTD/sodipodi-0.dtd"
   xmlns="http://www.w3.org/2000/svg"
   xmlns:svg="http://www.w3.org/2000/svg">
  <defs
     id="defs1690" />
  <sodipodi:namedview
     id="namedview1688"
     pagecolor="#ffffff"
     bordercolor="#666666"
     borderopacity="1.0"
     inkscape:showpageshadow="2"
     inkscape:pageopacity="0.0"
     inkscape:pagecheckerboard="0"
     inkscape:deskcolor="#d1d1d1"
     inkscape:document-units="mm"
     showgrid="false"
     inkscape:zoom="11.849953"
     inkscape:cx="8.6498233"
     inkscape:cy="32.742746"
     inkscape:window-width="1920"
     inkscape:window-height="1017"
     inkscape:window-x="-8"
     inkscape:window-y="-8"
     inkscape:window-maximized="1"
     inkscape:current-layer="svg1686" />
  <path
     style="fill:none;stroke:#000000;stroke-width:0.61578mm"
     d="m 106,201.5 c -0.80755,-3.41597 -2.00086,-5.63926 -2.92705,-8.25 -2.09833,-7.30899 -2.76344,-7.67673 -6.401922,-3.53967 -1.744064,1.98304 -4.183525,4.67993 -5.421028,5.99305 -1.237503,1.31314 -2.25,2.81708 -2.25,3.34208 0,2.55574 -12.838997,-1.19968 -15.304192,-4.47651 -0.442306,-0.58792 -0.550193,-4.12225 -0.239753,-7.85405 C 74.10099,178.9621 73.402771,175 71.391594,175 c -3.042357,2.54983 -7.054545,3.65356 -10.098927,5.09895 -5.241912,2.94618 -5.947921,3.60509 -10.101673,-0.25 -8.408894,-7.80428 -8.886339,-6.96623 -4.305385,-13.69458 2.941654,-4.3206 5.279888,-10.38887 4.212036,-11.45672 -0.541523,-0.54152 -2.588757,-0.62426 -4.772949,-0.19287 -3.442067,0.67982 -6.56741,0.82789 -12.210755,0.57855 -3.198865,-1.70247 -4.080339,-4.69011 -6.140701,-7.59987 -1.384548,-2.27931 -1.08787,-7.384 1.04377,-9.23346 1.109354,-0.96249 3.344188,-2.9875 4.966297,-4.5 1.861095,-1.57908 3.980625,-2.99714 5.541649,-4.45325 1.059097,-1.44839 0.871464,-1.89725 -1.254067,-2.99999 -3.948443,-1.23413 -8.167633,-1.93 -11.722917,-3.29676 -2.933186,0 -4.472122,-3.09215 -4.976916,-10 -0.411989,-5.63788 0.722496,-8.27454 3.983464,-9.25797 1.620014,-0.48854 3.84548,-1.27298 4.94548,-1.74318 1.1,-0.47021 3.6875,-1.13269 5.75,-1.47219 5.87183,-0.966556 4.881367,-3.068141 -4.700743,-9.974139 -1.486173,-1.071106 -3.290636,-3.096108 -4.009914,-4.5 -1.145949,-2.236656 -1.017157,-3.171242 1.040794,-7.552521 1.291716,-2.75 2.364615,-5.5625 2.384218,-6.25 0.0196,-0.6875 0.823145,-1.291733 1.785645,-1.342735 2.895638,-0.15345 10.509945,0.196014 14.438492,0.662666 2.028671,0.240967 3.96804,-0.01419 4.309711,-0.567024 0.341671,-0.552834 -0.980648,-3.971047 -2.938492,-7.596028 -4.559066,-8.4412 -4.546119,-11.0466 0.07408,-14.906879 1.974811,-1.650002 4.097965,-3.5037 4.718113,-4.119335 C 54.56081,43.180561 55.85218,43.542236 64,47.362892 c 2.474998,1.160572 4.778923,2.497975 5.119827,2.972012 0.340905,0.474037 1.465905,0.698616 2.5,0.499065 2.184166,-0.421474 2.54821,-4.146007 1.2472,-12.760128 -0.937523,-6.207518 -0.30384,-7.446661 4.925492,-9.631616 5.917915,-2.472664 9.344978,-1.89823 12.717018,2.131593 9.42704,11.26598 10.767613,11.732208 11.906023,4.14074 0.36657,-2.444481 1.30871,-5.292769 2.09366,-6.329533 1.04403,-2.682698 2.02364,-4.716424 3.88654,-6.345392 3.36348,-0.871425 11.52939,-0.573315 13.01829,1.088749 1.3908,1.552566 4.15796,8.116653 5.00459,11.871618 1.2269,5.441456 2.13963,5.604584 6.53256,1.16753 2.26472,-2.149354 4.98219,-3.941357 6.53256,-6.116377 2.31259,-3.408687 5.23212,-3.72238 11.51624,-0.738302 4.69562,2.229757 4.92808,2.89423 4.39589,12.564686 -0.57483,10.445179 -0.21974,10.788444 7.36798,7.122463 3.30439,-1.251207 6.75176,-3.124903 9.65228,-4 2.59163,0 4.42964,0.945068 7.61531,3.915661 3.61963,3.048549 4.54927,3.226782 2.50467,7.25 -3.10766,6.115112 -5.72107,13.910007 -5.15671,15.380703 5.57752,2.800151 10.30866,0.331239 15.11834,-0.346367 3.07431,0 3.69789,0.44696 5.09233,3.650001 0.87394,2.0075 2.22371,4.844437 2.99946,6.304291 2.00365,3.770615 1.82958,4.305054 -2.08955,6.415642 -3.67328,3.160129 -9.31403,6.896864 -9.48468,10.787056 3.20288,3.194623 9.31848,4.000803 14.34836,5.591183 2.7139,1.03182 3.192,3.26761 2.68414,12.55183 -0.19054,3.48318 -3.3508,5.43056 -6.59959,6.5 -3.34649,1.06359 -6.4392,1.90242 -9.34304,3.37325 -1.38359,1.66712 -0.61737,3.02259 1.50181,4.62675 2.28058,1.6984 3.67785,3.16065 5.36195,4.47848 4.80064,3.32685 5.6037,5.43778 3.70747,9.74567 -0.79306,1.80171 -1.99928,4.73834 -2.68049,6.52585 -1.21378,3.18495 -1.36289,3.25 -7.45058,3.25 -4.56756,0.0512 -9.56623,-1.34729 -13.54535,-1.40396 0,1.1636 3.68906,9.43436 5.53262,12.40396 3.06812,4.94209 2.54009,7.08234 -3.05014,12.36302 -4.81257,4.5461 -6.14667,4.58262 -7.90265,3.76615 -5.96289,-2.47216 -10.22108,-4.3694 -15.75447,-6.32644 -2.0882,-0.28175 0.0272,8.0592 0.0272,8.0592 0.31746,4.39475 1.37152,8.55848 1.67016,9.33677 0.58974,1.53683 -6.53215,5.25317 -12.26389,6.39952 -2.76463,0.55293 -3.56015,0.19534 -5.97409,-2.68542 -5.37608,-6.4157 -9.30062,-9.84395 -10.66824,-9.31914 -0.75936,0.2914 -1.67374,2.41452 -2.03196,4.71808 -0.35821,2.30354 -1.37242,6.10077 -2.25379,8.43826 -1.91714,5.69523 -0.35877,3.71528 -9.96664,4.25 -8.50461,-0.33243 -7.36142,0.79268 -8.36414,-3.5 z"
     id="path1682"
     transform="matrix(-0.081198,0,0,0.081198,-0.752165,0.80661)"
     sodipodi:nodetypes="ccssssscccsssccsccccsssssssssssssssssssssccssccsscccccccccccsccccssccssccssscssccc" />
  <ellipse
     style="opacity:0.48;fill:#000000;stroke-width:0.226135;stroke-linecap:square;stroke-linejoin:round;paint-order:fill markers stroke"
     id="path1867"
     cx="-10.084141"
     cy="10.021928"
     rx="2.2551546"
     ry="2.3221395" />
</svg>
