<?xml version="1.0" encoding="UTF-8" standalone="no"?>
<svg
   width="16mm"
   height="7.8179998mm"
   viewBox="0.369347 -7.24697 16 7.8183853"
   version="1.1"
   id="svg3"
   sodipodi:docname="nickel.svg"
   inkscape:version="1.3.2 (091e20e, 2023-11-25, custom)"
   xmlns:inkscape="http://www.inkscape.org/namespaces/inkscape"
   xmlns:sodipodi="http://sodipodi.sourceforge.net/DTD/sodipodi-0.dtd"
   xmlns="http://www.w3.org/2000/svg"
   xmlns:svg="http://www.w3.org/2000/svg">
  <defs
     id="defs3" />
  <sodipodi:namedview
     id="namedview3"
     pagecolor="#ffffff"
     bordercolor="#000000"
     borderopacity="0.25"
     inkscape:showpageshadow="2"
     inkscape:pageopacity="0.0"
     inkscape:pagecheckerboard="0"
     inkscape:deskcolor="#d1d1d1"
     inkscape:document-units="mm"
     inkscape:zoom="15.628056"
     inkscape:cx="28.346457"
     inkscape:cy="12.861485"
     inkscape:window-width="1500"
     inkscape:window-height="938"
     inkscape:window-x="-6"
     inkscape:window-y="-6"
     inkscape:window-maximized="1"
     inkscape:current-layer="svg3" />
  <path
     style="fill:none;stroke:#000000;stroke-width:0.0500002mm"
     d="m 15.726562,0.06480648 c 0.405493,0.0153672 -0.01304,-0.88414112 -0.05266,-1.22860918 -0.425494,-1.7453489 -0.734269,-3.339238 -1.086056,-4.9435863 -0.122056,-0.1899459 -0.05514,-0.5624338 -0.369546,-0.6083651 -3.669286,0.011218 -7.3392849,-0.031637 -11.0079303,0.045069 -0.6396027,-0.0695 -0.5704487,0.6277296 -0.7000551,1.0458523 -0.4827339,1.5858793 -0.8408862,3.0515263 -1.2675644,4.5324912 -0.1335573,0.36983576 -0.32660914,0.70236133 -0.34421201,1.11081539 0.0935001,0.11346372 0.22085981,0.0799471 0.55409631,0.0764378 4.8601551,-0.0363634 9.8640495,-0.002723 14.2739225,-0.0301012 z"
     id="path1" />
  <path
     style="fill:none;stroke:#000000;stroke-width:0.0500002mm"
     d="M 1.8118305,-0.44976702 C 1.5784573,-0.45359902 1.8418815,-1.2658401 1.9962342,-1.5989233 2.5781425,-3.2232504 2.975262,-4.6621391 3.3806071,-5.946904 3.4782811,-6.2494332 3.6233515,-6.208422 3.8527859,-6.2017534 h 9.9291451 c 0.406423,0 0.881491,3.4108757 1.19778,4.9464623 0.162279,0.53135346 -0.03906,0.74395136 -0.603824,0.75724926 -3.938781,0.0588107 -7.8784648,0.0668791 -11.8176435,0.0685026 -0.2487496,-0.005143 -0.4982836,-2.9345e-4 -0.746417,-0.0202288 z"
     id="path2" />
  <path
     style="fill:none;stroke:#000000;stroke-width:0.0500002mm"
     d="m 9.7553043,-1.7621765 c -0.00101,-1.0784856 -0.00655,-2.0818898 0.00514,-3.1178607 -0.1875065,-0.00579 -0.4271632,0.005 -0.5838122,0.00838 0.00736,0.5779493 -0.00645,1.2590512 0.00484,1.9994066 -0.3137054,-0.4844138 -1.0306707,-1.5886413 -1.2945151,-2.0047058 -0.3156144,0.00696 -0.4386692,0.00314 -0.5400299,0.00613 -0.023012,0.9655958 0.00847,2.052065 -0.00756,3.1145804 0.1615015,0.00413 0.3827657,6.46e-5 0.5585544,0.00383 0.00212,-0.6192186 -0.00282,-0.2090654 -0.00333,-1.9806229 0.3004136,0.4737912 1.0267389,1.5663816 1.2969414,1.9715764 0.4757102,-0.00151 0.2816702,0.00393 0.5637649,-7.17e-4 z"
     id="path3" />
</svg>
