<?xml version="1.0" encoding="UTF-8" standalone="no"?>
<svg
   width="9.090mm"
   height="15.000mm"
   viewBox="-14.525785 2.423151 9.089774 15.000000"
   version="1.1"
   id="svg985"
   sodipodi:docname="oats.svg"
   inkscape:version="1.2.2 (732a01da63, 2022-12-09)"
   xmlns:inkscape="http://www.inkscape.org/namespaces/inkscape"
   xmlns:sodipodi="http://sodipodi.sourceforge.net/DTD/sodipodi-0.dtd"
   xmlns="http://www.w3.org/2000/svg"
   xmlns:svg="http://www.w3.org/2000/svg">
  <defs
     id="defs989" />
  <sodipodi:namedview
     id="namedview987"
     pagecolor="#ffffff"
     bordercolor="#666666"
     borderopacity="1.0"
     inkscape:showpageshadow="2"
     inkscape:pageopacity="0.0"
     inkscape:pagecheckerboard="0"
     inkscape:deskcolor="#d1d1d1"
     inkscape:document-units="mm"
     showgrid="false"
     inkscape:zoom="11.774114"
     inkscape:cx="-4.2041381"
     inkscape:cy="32.698852"
     inkscape:window-width="1920"
     inkscape:window-height="1017"
     inkscape:window-x="-8"
     inkscape:window-y="-8"
     inkscape:window-maximized="1"
     inkscape:current-layer="svg985" />
  <path
     style="fill:none;stroke:#000000;stroke-width:0.0499995mm"
     d="m -10.735184,17.398 c -0.01158,-0.590942 0.127746,-1.150666 0.16996,-1.733277 0.04253,-0.707566 -0.05994,-1.435195 0.05979,-2.131244 0.122027,-0.532835 0.217993,-1.055602 0.316658,-1.590605 -0.120653,-0.464356 0.185018,-0.781752 0.4983769,-0.320461 0.3681372,0.383309 0.8182926,0.744518 1.0748921,1.197378 0.166949,0.39424 0.4666293,0.719324 0.3713214,1.188773 -0.072227,0.502151 -0.3131708,0.978245 -0.3565894,1.46288 0.2081303,0.260834 -0.046029,1.544115 0.43414,0.884752 0.2264356,-0.547861 0.4062749,-1.138297 0.4321042,-1.733103 -0.263056,-0.499035 -0.091581,-1.096548 -0.3792683,-1.587719 -0.2142352,-0.485245 -0.4679969,-0.957243 -0.8652183,-1.334264 -0.1678747,-0.458179 -1.2580766,-0.694799 -0.892365,-1.188347 0.4450936,-0.359737 0.9805085,-0.5194169 1.496529,-0.6826347 0.9119396,-0.02861 2.5575543,0.5552487 2.8750324,-0.2440876 0.2460058,-0.5787781 -0.7483123,-1.022043 -1.203644,-0.7091025 -0.550158,0.031655 -1.0010141,0.4088307 -1.5610588,0.4746634 -0.4609307,0.2598 -1.0513769,0.3378749 -1.5214491,0.6322123 -0.5121671,0.042001 -0.073587,-0.8865518 -0.079119,-1.2198194 0.055841,-0.7267223 -0.051307,-1.4735222 0.071292,-2.1887975 0.086611,-0.634154 0.073603,-1.2965036 0.130921,-1.9407991 -0.059242,-0.5184848 0.1512227,-1.0618991 0.6548537,-1.1959432 0.3854805,-0.1037037 1.2416854,-0.2376968 1.1201421,-0.759089 -0.1346567,-0.2383222 -0.3656665,-0.2491626 -0.6110905,-0.224455 -0.4630586,-0.07147 -0.8490324,0.1214858 -1.2771894,0.2076123 -0.2327859,0.1902647 -0.4836939,0.4327301 -0.4105399,0.7617062 -0.0095,1.6959174 0.02164,3.3609958 -0.02898,5.0561287 -0.24763,0.5806518 -0.04234,1.2629982 -0.275862,1.8439001 -0.370741,0.389941 -0.873366,0.594204 -1.292689,0.926689 -0.480416,0.356487 -0.938353,0.747012 -1.404331,1.12218 -0.435989,0.317855 -0.444458,-0.639948 -0.621353,-0.887559 0.0026,-0.569422 0.01411,-1.142301 -0.161638,-1.6759621 -0.0161,-0.5357556 0.26134,-1.0043002 0.530671,-1.4394285 0.186601,-0.4514635 0.21876,-1.0277904 0.07481,-1.4957324 -0.09602,-0.4525157 -0.266883,-1.2764804 -0.932323,-1.0090945 -0.177412,0.2076179 -0.232084,0.4284016 -0.195483,0.7068092 0.02057,0.4803993 -0.06993,0.9862919 0.108675,1.4376353 0.150462,0.9062707 -0.01028,1.8764614 0.08398,2.79228 0.223665,0.47853 0.10573,1.060277 0.309723,1.543698 0.158917,0.541846 0.50869,1.048824 0.7733,1.569232 0.313555,0.416971 0.519696,0.981026 1.049119,1.207463 0.467177,0.29308 0.566938,0.893209 0.769889,1.37834 0.291741,0.21599 0.234921,0.98572 0.664008,0.897192 z"
     id="path981"
     sodipodi:nodetypes="scccccccccccccccccccccccccccccccccccccccccss" />
  <path
     style="fill:none;stroke:#000000;stroke-width:0.0499995mm"
     d="m -11.233931,15.559158 c -0.177712,-0.602413 -0.862947,-0.786481 -1.132116,-1.337332 -0.193561,-0.464943 -0.715842,-0.783687 -0.725115,-1.254735 0.595555,-0.430893 1.063166,-1.040649 1.651498,-1.491708 0.23968,-0.179388 1.012561,-0.83038 0.87851,-0.10396 0.02292,0.583124 -0.140642,1.146438 -0.205202,1.712418 -0.255767,0.586597 -0.03399,1.270263 -0.203003,1.881916 0.06103,0.121374 -0.100645,0.953387 -0.264572,0.593401 z"
     id="path983"
     sodipodi:nodetypes="cccccccc" />
</svg>
