<?xml version="1.0" encoding="UTF-8" standalone="no"?>
<svg
   width="6.885mm"
   height="15.000mm"
   viewBox="-13.442421 2.499999 6.884842 15.000001"
   version="1.1"
   id="svg2323"
   sodipodi:docname="oil.svg"
   inkscape:version="1.2.2 (732a01da63, 2022-12-09)"
   xmlns:inkscape="http://www.inkscape.org/namespaces/inkscape"
   xmlns:sodipodi="http://sodipodi.sourceforge.net/DTD/sodipodi-0.dtd"
   xmlns="http://www.w3.org/2000/svg"
   xmlns:svg="http://www.w3.org/2000/svg">
  <defs
     id="defs2327" />
  <sodipodi:namedview
     id="namedview2325"
     pagecolor="#ffffff"
     bordercolor="#666666"
     borderopacity="1.0"
     inkscape:showpageshadow="2"
     inkscape:pageopacity="0.0"
     inkscape:pagecheckerboard="0"
     inkscape:deskcolor="#d1d1d1"
     inkscape:document-units="mm"
     showgrid="false"
     inkscape:zoom="11.774114"
     inkscape:cx="12.357618"
     inkscape:cy="25.479625"
     inkscape:window-width="1920"
     inkscape:window-height="1017"
     inkscape:window-x="1912"
     inkscape:window-y="-8"
     inkscape:window-maximized="1"
     inkscape:current-layer="svg2323" />
  <path
     style="fill:none;stroke:#000000;stroke-width:0.0499998mm"
     d="m -6.8672991,17.482601 c 0.2641895,0.0251 0.3708252,-0.07879 0.2865974,-0.338946 -0.031506,-0.486044 -0.07109,-0.974773 -0.2308503,-1.436926 C -7.0628751,13.978427 -7.2280191,12.237995 -7.468325,10.507892 -7.5757286,9.9079424 -7.7663659,6.7249527 -8.0947891,5.7373642 -8.1173648,5.621092 -8.4287433,5.6292939 -8.6108495,5.6543593 c -0.018657,-0.725423 0.041407,-1.4502665 0.025522,-2.1785186 -0.3512791,-0.1098612 -0.3450332,-0.1796848 -0.52227,-0.6361779 -0.335681,-0.2879351 -1.1313299,-0.3343698 -1.4205529,0.046381 -0.176118,0.4278991 -0.03301,0.5414683 -0.499224,0.6379492 -0.0023,0.5134302 -0.0087,1.6306831 -0.0091,2.1441174 -0.160033,0.064616 -0.512588,-0.059099 -0.524701,0.1502175 -0.30252,1.9010666 -0.612871,3.6138805 -0.799378,5.3096613 -0.201936,1.516338 -0.488337,3.020768 -0.663927,4.541081 -0.124268,0.581544 -0.27047,1.058671 -0.370984,1.60021 -0.164642,0.291567 0.216702,0.157552 0.389153,0.186363 2.046472,-0.02121 4.0934246,0.07325 6.1390537,0.02696 z"
     id="path2293"
     sodipodi:nodetypes="scccccccccccccccss" />
  <path
     style="fill:none;stroke:#000000;stroke-width:0.0499998mm"
     d="m -10.658525,16.885634 c -0.300236,-0.08133 -1.121882,0.162504 -1.130607,-0.216711 0.465308,-0.38923 1.014849,-0.639693 1.496701,-1.006642 0.3266126,-0.453988 0.7776037,0.0048 1.0907286,0.230539 0.252308,0.363248 1.1718974,0.608862 0.9367237,1.073242 -0.7964926,-0.0248 -1.5944517,-0.09179 -2.3935463,-0.08043 z"
     id="path2295" />
  <path
     style="fill:none;stroke:#000000;stroke-width:0.0499998mm"
     d="M -7.5976105,16.282637 C -8.1168513,15.89366 -8.6673121,15.51587 -9.095628,15.028823 c 0.2742537,-0.472054 0.8826157,-0.700931 1.2278727,-1.105031 0.3656763,0.455781 0.2962191,1.130139 0.4761083,1.675496 -0.014082,0.224868 0.3323603,1.136575 -0.2059635,0.683349 z"
     id="path2297" />
  <path
     style="fill:none;stroke:#000000;stroke-width:0.0499998mm"
     d="m -12.678502,16.00331 c 0.09742,-0.733272 0.17912,-1.473162 0.322382,-2.19746 0.476642,-0.199603 0.899517,0.557293 1.322124,0.784784 0.656368,0.524659 -0.606056,0.811739 -0.788727,1.260193 -0.248741,0.150813 -1.070393,1.040455 -0.855779,0.152483 z"
     id="path2299" />
  <path
     style="fill:none;stroke:#000000;stroke-width:0.0499998mm"
     d="m -10.182883,14.27251 c -0.424242,-0.216593 -0.779385,-0.550412 -1.171941,-0.805424 0.908955,-0.113745 1.8365005,-0.0715 2.7510464,-0.03341 -0.2296356,0.440003 -1.2019563,1.129454 -1.5791054,0.838839 z"
     id="path2301"
     sodipodi:nodetypes="ccccc" />
  <path
     style="fill:none;stroke:#000000;stroke-width:0.0499998mm"
     d="m -11.354824,12.485382 c 0.501899,-0.291574 0.973212,-0.78879 1.5868146,-0.779659 0.3040101,0.149449 1.0956782,0.479868 0.9402334,0.771671 -0.8384718,0.06355 -1.68851,0.06197 -2.527048,0.008 z"
     id="path2303" />
  <path
     style="fill:none;stroke:#000000;stroke-width:0.0499998mm"
     d="m -12.071017,12.044354 c 0.268282,-0.454714 0.245513,-1.054632 0.376799,-1.580152 0.07992,-0.7373236 0.821661,0.204715 1.140294,0.353357 0.429153,0.447483 -0.599294,0.749398 -0.859444,1.041298 -0.162003,0.0094 -0.647731,0.59697 -0.657649,0.185497 z"
     id="path2305" />
  <path
     style="fill:none;stroke:#000000;stroke-width:0.0499998mm"
     d="m -8.2729213,11.911486 c -0.3331905,-0.251194 -1.3620303,-0.638156 -0.6247545,-1.045572 0.2803258,-0.2429 0.9103873,-0.862705 0.848695,-0.07969 -0.1099519,0.427377 0.4848039,1.079884 0.1357263,1.320945 -0.1256682,-0.05392 -0.2438028,-0.123525 -0.3596668,-0.195681 z"
     id="path2307" />
  <path
     style="fill:none;stroke:#000000;stroke-width:0.0499998mm"
     d="m -10.282284,10.393131 c -0.287437,-0.307484 -0.629529,-0.5547772 -0.05957,-0.4890394 0.4086696,0.02025 1.0228546,-0.087919 1.3024666,0.1010884 -0.6802191,0.608169 -0.5953599,1.087071 -1.2428966,0.387951 z"
     id="path2309"
     sodipodi:nodetypes="cccc" />
  <path
     style="fill:none;stroke:#000000;stroke-width:0.0499998mm"
     d="m -10.797785,9.2016177 c 0.34027,-0.3104339 0.739912,-1.0841416 1.2041148,-0.9672569 0.2493145,0.2847942 0.9261733,0.7027254 0.8596961,0.9868829 -0.6842141,0.046046 -1.3842149,0.072485 -2.0638109,-0.019626 z"
     id="path2311" />
  <path
     style="fill:none;stroke:#000000;stroke-width:0.0499998mm"
     d="M -9.1251605,7.9084671 C -9.5332091,7.5749308 -8.9330156,6.7118607 -8.5744678,6.8684776 -8.4519446,7.4101203 -8.3599239,7.9729423 -8.349252,8.5277843 -8.6339832,8.5133403 -8.9208218,8.1235455 -9.1251605,7.9084671 Z"
     id="path2313" />
  <path
     style="fill:none;stroke:#000000;stroke-width:0.0499998mm"
     d="m -11.325188,8.0456098 c 0.08782,-0.3806928 -0.04675,-1.6664238 0.604484,-0.9918261 0.460799,0.3014985 0.408722,0.7185866 -0.04075,1.0131404 -0.206832,0.2680738 -0.715629,0.7375184 -0.572226,0.079974 z"
     id="path2315" />
  <path
     style="fill:none;stroke:#000000;stroke-width:0.0499998mm"
     d="M -10.164391,6.69773 C -10.807512,6.2972405 -9.5016999,6.3207305 -9.3804541,6.4963125 -9.7725539,6.9610477 -9.77157,7.2074741 -10.164391,6.69773 Z"
     id="path2317"
     sodipodi:nodetypes="ccc" />
  <path
     style="fill:none;stroke:#000000;stroke-width:0.0499998mm"
     d="m -10.479481,4.0006406 1.3527451,0.014445 0.00604,1.5039542 -1.3546495,-0.01589 c 0.0019,-0.5106467 -0.0016,-1.054629 -0.0041,-1.5025097 z"
     id="path2319"
     sodipodi:nodetypes="ccccc" />
  <rect
     style="opacity:0.48;fill:#000000;stroke-width:0.22613;stroke-linecap:square;stroke-linejoin:round;paint-order:fill markers stroke"
     id="rect2504"
     width="0.90572035"
     height="0.44491529"
     x="-10.22481"
     y="2.9528592" />
</svg>
