<?xml version="1.0" encoding="UTF-8" standalone="no"?>
<svg
   width="15.000mm"
   height="8.529mm"
   viewBox="-17.499998 5.735268 15.000000 8.529461"
   version="1.1"
   id="svg2934"
   sodipodi:docname="pig.svg"
   inkscape:version="1.2.2 (732a01da63, 2022-12-09)"
   xmlns:inkscape="http://www.inkscape.org/namespaces/inkscape"
   xmlns:sodipodi="http://sodipodi.sourceforge.net/DTD/sodipodi-0.dtd"
   xmlns="http://www.w3.org/2000/svg"
   xmlns:svg="http://www.w3.org/2000/svg">
  <defs
     id="defs2938" />
  <sodipodi:namedview
     id="namedview2936"
     pagecolor="#ffffff"
     bordercolor="#666666"
     borderopacity="1.0"
     inkscape:showpageshadow="2"
     inkscape:pageopacity="0.0"
     inkscape:pagecheckerboard="0"
     inkscape:deskcolor="#d1d1d1"
     inkscape:document-units="mm"
     showgrid="false"
     inkscape:zoom="14.642201"
     inkscape:cx="20.591167"
     inkscape:cy="5.5319553"
     inkscape:window-width="1920"
     inkscape:window-height="1017"
     inkscape:window-x="1912"
     inkscape:window-y="-8"
     inkscape:window-maximized="1"
     inkscape:current-layer="svg2934" />
  <path
     style="fill:none;stroke:#000000;stroke-width:0.0499999mm"
     d="m -12.696793,14.061061 c 0.384791,-0.47058 0.261302,-1.261979 0.752084,-1.633725 0.375999,0.336037 0.257458,1.009598 0.515563,1.442481 0.577882,0.259763 0.724001,-0.466768 0.703748,-0.901428 0.126923,-0.661766 0.9235264,-0.677219 1.4570479,-0.703435 0.7560194,-0.01685 1.559693,-0.222736 2.286023,0.06206 0.062071,0.408266 0.1036229,1.681637 0.7946736,1.022249 0.1897829,-0.325066 0.1610291,-1.586116 0.6620149,-0.799788 0.1264155,0.426559 0.2571304,1.460708 0.8362795,0.740447 C -4.2153778,12.43936 -4.338281,11.358311 -3.7011378,10.58237 -3.3254603,9.8676744 -3.3347492,9.0358992 -3.2093639,8.2632629 -2.851695,7.8841666 -2.680549,7.4193414 -2.5046571,7.0157768 -2.4729057,6.6803596 -2.4601879,6.1922932 -2.8428389,6.6125496 -3.1779492,6.933239 -3.1239511,7.4871399 -3.423795,7.0747244 -4.1297964,6.5361711 -4.9585342,6.1538066 -5.800656,5.8790107 -7.2950619,5.6225698 -8.8366033,5.7219199 -10.317924,6.0167988 c -0.517401,0.1054114 -0.980887,0.3433685 -1.513606,0.4269877 -0.751571,0.1734565 -1.512162,0.3847016 -2.285485,0.3999186 -0.341796,-0.1057524 -0.684776,-0.7948716 -0.988641,-0.6119363 -0.09323,0.4262987 0.168276,1.507459 -0.575709,1.2670965 -0.05689,-0.4883335 -0.396711,-0.3787337 -0.440213,0.024788 -0.111797,0.5604691 -0.05796,1.136924 -0.0687,1.705319 -0.420715,0.4179942 -0.822264,0.8327937 -1.242979,1.2507897 0.0093,0.509039 -0.187569,1.088623 0.120272,1.539192 0.478916,0.308331 1.113728,0.01805 1.659141,0.155252 0.640798,0.211695 1.341888,0.06597 1.982063,0.251033 0.280224,0.484806 -7.34e-4,1.150401 0.37467,1.602035 0.154395,0.253233 0.437745,0.33403 0.600316,0.03379 z"
     id="path2932"
     sodipodi:nodetypes="sccccccccccccccccccccccccccss" />
</svg>
