<?xml version="1.0" encoding="UTF-8" standalone="no"?>
<svg
   width="7.840mm"
   height="15.000mm"
   viewBox="-13.919810 2.500077 7.839620 14.999844"
   version="1.1"
   id="svg2540"
   sodipodi:docname="rice.svg"
   inkscape:version="1.2.2 (732a01da63, 2022-12-09)"
   xmlns:inkscape="http://www.inkscape.org/namespaces/inkscape"
   xmlns:sodipodi="http://sodipodi.sourceforge.net/DTD/sodipodi-0.dtd"
   xmlns="http://www.w3.org/2000/svg"
   xmlns:svg="http://www.w3.org/2000/svg">
  <defs
     id="defs2544" />
  <sodipodi:namedview
     id="namedview2542"
     pagecolor="#ffffff"
     bordercolor="#666666"
     borderopacity="1.0"
     inkscape:showpageshadow="2"
     inkscape:pageopacity="0.0"
     inkscape:pagecheckerboard="0"
     inkscape:deskcolor="#d1d1d1"
     inkscape:document-units="mm"
     showgrid="false"
     inkscape:zoom="11.774114"
     inkscape:cx="12.527482"
     inkscape:cy="18.260398"
     inkscape:window-width="1920"
     inkscape:window-height="1017"
     inkscape:window-x="1912"
     inkscape:window-y="-8"
     inkscape:window-maximized="1"
     inkscape:current-layer="svg2540" />
  <path
     style="fill:none;stroke:#000000;stroke-width:0.0500005mm"
     d="m -12.645562,17.292354 c 0.509339,-0.446094 0.225684,-1.217844 0.6011,-1.736375 0.265565,-0.58865 0.991374,-0.581291 1.378782,-1.007737 0.542567,-0.418319 0.6949481,-1.058571 0.9099414,-1.668425 -0.088686,-0.651009 0.3286925,-1.222019 0.1865391,-1.868138 -0.2772855,-0.636237 -1.2915535,-0.583294 -1.4123995,0.122877 -0.267593,0.401199 0.273737,0.604713 0.331689,0.913387 -5.77e-4,0.409323 0.03069,0.844247 -0.178226,1.203975 -0.22204,0.57245 -0.774914,1.013444 -1.384655,1.074022 -0.646805,-0.03218 -0.869485,-0.886925 -0.875481,-1.428088 0.139907,-0.562759 0.245255,-0.894487 0.274402,-1.442365 0.04373,-0.53497 -0.75923,-1.058753 -1.082427,-0.531661 -0.188398,0.590175 0.476579,1.168709 0.02258,1.711435 -0.178669,0.563131 0.0295,1.104084 0.386611,1.526166 0.396099,0.480317 0.674081,1.162624 0.274402,1.722087 -0.195345,0.323364 -0.365978,0.651407 -0.462959,1.038421 -0.132183,0.617219 0.721343,0.769256 1.030097,0.370419 z"
     id="path2524" />
  <path
     style="fill:none;stroke:#000000;stroke-width:0.0500005mm"
     d="m -12.21277,11.252103 c 0.595315,-0.2534 0.362623,-0.932671 0.189047,-1.3823718 -0.155221,-0.6761009 -0.971164,-0.3897984 -0.790046,0.2325518 -0.02876,0.468364 0.118576,0.951989 0.487979,1.245996 l 0.04392,-0.02825 z"
     id="path2526" />
  <path
     style="fill:none;stroke:#000000;stroke-width:0.0500005mm"
     d="M -8.738412,10.388624 C -8.371334,9.9281389 -8.1804819,9.3766167 -8.2463642,8.7781596 -8.2386061,8.4987909 -8.6984904,8.4753009 -8.269554,8.318735 -8.0820309,7.9675882 -8.1207593,7.36755 -8.4933596,7.1367122 -8.6764186,7.1946669 -9.2318372,6.942643 -9.159182,7.2883501 c 0.00437,0.4023027 -0.067939,0.9507699 0.3930865,1.1265609 0.1891412,0.1997412 -0.7904362,0.1512666 -0.5892331,0.5873516 -0.1173174,0.4126739 -0.3941177,1.1195884 -0.020249,1.4083004 0.014595,0.308564 0.5386559,0.169491 0.637166,-0.02194 z"
     id="path2528" />
  <path
     style="fill:none;stroke:#000000;stroke-width:0.0500005mm"
     d="m -10.946821,9.6981657 c 0.355846,-0.4727776 0.579521,-1.0192203 0.583453,-1.6193422 -0.112876,-0.7170214 -1.134454,-0.3576718 -1.214199,0.2120652 -0.240759,0.3847569 -0.506013,0.9157989 -0.240636,1.3262223 0.245982,0.1961543 0.590822,0.3029121 0.871382,0.081055 z"
     id="path2530" />
  <path
     style="fill:none;stroke:#000000;stroke-width:0.0500005mm"
     d="M -7.3071788,7.7409995 C -6.8029921,7.5863399 -6.442655,6.9539274 -6.422401,6.4092432 -6.5215742,6.0904718 -7.1994177,6.2063176 -6.9038554,5.7621161 c 0.022284,-0.486538 -0.1871752,-0.9097368 -0.499762,-1.2667297 -0.3025607,-0.581585 -0.993331,-0.01919 -0.7626676,0.4373302 -0.047777,0.6338651 0.3458504,1.1707435 0.9734429,1.2676607 -0.3334502,0.3732052 -0.6495492,0.8294175 -0.7549036,1.2878077 0.1103519,0.2094483 0.4140379,0.4942033 0.6405669,0.2528145 z"
     id="path2532" />
  <path
     style="fill:none;stroke:#000000;stroke-width:0.0500005mm"
     d="m -10.804393,7.431081 c 0.735516,-0.332516 -0.04097,-0.9367393 0.0077,-1.4344095 0.03959,-0.6842083 -0.90669,-0.4786759 -1.003408,0.081798 0.149843,0.216817 -0.09986,0.6056719 0.02025,0.8913935 0.273759,0.2517575 0.545818,0.7076058 0.975459,0.4612178 z"
     id="path2534" />
  <path
     style="fill:none;stroke:#000000;stroke-width:0.0500005mm"
     d="m -10.115247,5.205037 c 0.3464866,-0.4111138 0.4623469,-1.048654 0.5616583,-1.6128941 -0.056503,-0.759203 -1.1378593,-0.2551124 -1.1245733,0.2899112 -0.14583,0.395251 -0.641833,1.0401041 -0.08223,1.3386503 0.211707,0.027698 0.437139,0.039078 0.645146,-0.015667 z"
     id="path2536" />
  <path
     style="fill:none;stroke:#000000;stroke-width:0.0500005mm"
     d="M -6.8584838,4.3751 C -6.2718272,4.2848328 -6.4018889,3.6630307 -6.1461063,3.2978382 -6.019757,2.7696458 -6.5266122,2.430657 -7.0009123,2.547756 -7.3219253,2.561729 -7.1156287,3.2109176 -7.3393638,3.4277664 -7.5185612,3.8340729 -7.482622,4.58181 -6.8584838,4.3751 Z"
     id="path2538" />
</svg>
