<?xml version="1.0" encoding="UTF-8" standalone="no"?>
<svg
   width="15.000mm"
   height="9.113mm"
   viewBox="-17.500000 5.443390 15.000000 9.113215"
   version="1.1"
   id="svg2676"
   sodipodi:docname="sheep.svg"
   inkscape:version="1.2.2 (732a01da63, 2022-12-09)"
   xmlns:inkscape="http://www.inkscape.org/namespaces/inkscape"
   xmlns:sodipodi="http://sodipodi.sourceforge.net/DTD/sodipodi-0.dtd"
   xmlns="http://www.w3.org/2000/svg"
   xmlns:svg="http://www.w3.org/2000/svg">
  <defs
     id="defs2680" />
  <sodipodi:namedview
     id="namedview2678"
     pagecolor="#ffffff"
     bordercolor="#666666"
     borderopacity="1.0"
     inkscape:showpageshadow="2"
     inkscape:pageopacity="0.0"
     inkscape:pagecheckerboard="0"
     inkscape:deskcolor="#d1d1d1"
     inkscape:document-units="mm"
     showgrid="false"
     inkscape:zoom="13.703866"
     inkscape:cx="17.549792"
     inkscape:cy="9.9971786"
     inkscape:window-width="1920"
     inkscape:window-height="1017"
     inkscape:window-x="1912"
     inkscape:window-y="-8"
     inkscape:window-maximized="1"
     inkscape:current-layer="svg2676" />
  <path
     style="fill:none;stroke:#000000;stroke-width:0.0499995mm"
     d="m -12.839385,14.4377 c 0.299458,-0.291227 -0.08149,-1.280615 0.290697,-1.296513 0.02694,0.399103 0.01771,1.692089 0.674187,1.042231 0.139785,-0.436122 -0.08235,-1.173627 0.527214,-1.224374 0.417997,-0.228425 0.960976,-0.388069 1.4397632,-0.244641 0.5745451,-0.09802 1.0518416,0.290386 1.5446669,-0.01683 0.4798234,0.01889 0.995025,-0.06881 1.4704115,0.0014 0.6642218,-0.328924 0.6730594,0.526013 0.7492552,0.957015 0.3745241,0.512087 0.7647062,-0.453803 0.7297183,-0.818437 -0.050168,-0.311866 0.1130078,-0.892144 0.3056767,-0.298835 0.1255325,0.34832 0.062472,0.726327 0.077487,1.089205 0.436848,0.110043 0.5982411,-0.213636 0.655505,-0.590523 0.042696,-0.480802 -0.02957,-1.347221 0.601757,-1.397364 0.3709106,-0.384951 0.384832,-1.003228 0.4979234,-1.517677 0.060594,-0.5932532 -0.078523,-1.2388293 0.1080786,-1.797572 C -2.7898874,8.225047 -2.298307,7.9614239 -2.5411059,7.4114725 -2.7569695,6.8755422 -3.3620697,6.6761816 -3.8675773,6.5699922 -4.4418347,6.789084 -4.9750132,6.4371176 -5.5648645,6.4474738 c -0.6071314,-0.228788 -1.2830719,0.059479 -1.8655741,-0.0769 -0.4575111,-0.1356968 -0.7641675,-0.208776 -1.1867319,0.090934 -0.4778283,-0.2616034 -1.0285308,0.068757 -1.5446715,0.00346 -0.451387,0.038867 -0.917841,0.2739951 -1.349579,0.095824 -0.538091,-0.1059406 -1.148933,-0.1014603 -1.63277,-0.3531272 -0.231351,-0.4524824 -0.733956,-0.6462367 -1.2306,-0.6947537 -0.557689,-0.080227 -1.102624,0.2431975 -1.634932,-0.04961 -0.555737,-0.1963048 -0.571078,0.4335878 -0.534601,0.8075615 0.05583,0.2464056 -0.06084,0.4208287 -0.253223,0.5636562 -0.282572,0.3635642 -0.995391,0.9730554 -0.469077,1.3869487 0.471727,0.2776083 0.919892,0.5798871 1.391704,0.8547228 0.323579,0.4043207 0.469987,0.8624342 0.702302,1.2962719 -0.195085,0.735257 0.621264,1.000888 0.679233,1.610113 0.125958,0.503549 0.478531,0.752475 0.866598,1.002358 0.247252,0.151139 0.101395,0.467857 0.140127,0.706826 -0.06791,0.446668 0.03578,1.211258 0.647275,0.745941 z"
     id="path2674" />
</svg>
