<?xml version="1.0" encoding="UTF-8" standalone="no"?>
<svg xmlns="http://www.w3.org/2000/svg" xmlns:xlink="http://www.w3.org/1999/xlink" width="10.130mm" height="14.000mm" viewBox="4.935227 -16.999996 10.129546 14.000000">
    <path transform="matrix(-0.120157,0,0,0.120157,16.727314,-19.004387)" style="stroke:#000000;stroke-width:0.416123mm;fill:none" d="M21.16762,130.881378C21.444481,128.953522,22.585724,128.280258,28,126.850708C31.575001,125.906776,35.593052,125.104218,36.929001,125.067238C38.264954,125.030258,40.739952,124.565613,42.429001,124.034683C44.11805,123.503761,46.737499,122.820183,48.25,122.515633L51,121.961899L51,78.562737C51,54.693195,50.726856,34.451771,50.393013,33.581787C50.059166,32.711803,48.799168,32,47.59301,32C46.386856,32,44.9725,31.599968,44.450001,31.111038C43.927502,30.622108,41.025002,29.752691,38,29.179001C32.144192,28.068443,18.498762,24.256248,16,23.032743C15.175,22.628786,14.350694,21.034491,14.168208,19.489864L13.836417,16.681454L28.168209,17.337069C36.050694,17.697657,55.018799,17.994329,70.31955,17.996342L98.139099,18L97.81955,20.25C97.496956,22.521452,96.300438,23.051088,84.5,26.145884C82.300003,26.722858,79.767899,27.570286,78.873108,28.029057C77.978317,28.487825,75.634682,29.16551,73.665031,29.535019C71.695374,29.904528,68.37748,30.791498,66.291924,31.506063C62.765602,32.714272,62.453602,33.144802,61.837605,37.652637C61.473289,40.318687,61.135788,60.107399,61.087605,81.627556C61.019989,111.826538,61.28524,120.978287,62.25,121.733124C63.858276,122.991463,66.853195,123.844978,75.5,125.509262C87.842415,127.884857,93.347359,129.985367,91.658913,131.675003C91.205482,132.128754,75.084656,132.656555,55.834862,132.847916L20.835238,133.195816L21.16762,130.881378z"/>
</svg>
