<?xml version="1.0" encoding="UTF-8" standalone="no"?>
<svg
   width="10.342mm"
   height="15.000mm"
   viewBox="-11.685111 0.549504 10.341865 15.000000"
   version="1.1"
   id="svg2805"
   sodipodi:docname="sugar.svg"
   inkscape:version="1.2.2 (732a01da63, 2022-12-09)"
   xmlns:inkscape="http://www.inkscape.org/namespaces/inkscape"
   xmlns:sodipodi="http://sodipodi.sourceforge.net/DTD/sodipodi-0.dtd"
   xmlns="http://www.w3.org/2000/svg"
   xmlns:svg="http://www.w3.org/2000/svg">
  <defs
     id="defs2809" />
  <sodipodi:namedview
     id="namedview2807"
     pagecolor="#ffffff"
     bordercolor="#666666"
     borderopacity="1.0"
     inkscape:showpageshadow="2"
     inkscape:pageopacity="0.0"
     inkscape:pagecheckerboard="0"
     inkscape:deskcolor="#d1d1d1"
     inkscape:document-units="mm"
     showgrid="false"
     inkscape:zoom="11.774114"
     inkscape:cx="24.24811"
     inkscape:cy="27.263199"
     inkscape:window-width="1920"
     inkscape:window-height="1017"
     inkscape:window-x="1912"
     inkscape:window-y="-8"
     inkscape:window-maximized="1"
     inkscape:current-layer="svg2805" />
  <path
     style="fill:none;stroke:#000000;stroke-width:0.0500001mm"
     d="m -6.2331129,15.422667 c 0.7431832,-0.113652 0.5233075,-1.024893 0.5809236,-1.557668 0.013299,-1.148781 0.024184,-2.297591 0.036552,-3.446382 0.249146,-1.0104274 0.4858893,-1.9275924 0.9468159,-2.8147469 0.5645937,-1.0480234 1.0414668,-2.1613243 1.7238278,-3.1268007 0.363093,-0.7873438 1.3382592,0.2931829 1.5992161,-0.1460085 C -1.485521,3.7846903 -1.5170057,2.9891158 -2.1737887,2.8123723 -3.0418882,2.6942057 -3.6287516,3.4836882 -4.2043085,3.9991933 -4.477084,4.2590148 -5.20057,5.1407646 -5.1508429,4.2268532 -5.2457945,3.1087415 -5.1932589,1.9776905 -5.3519117,0.86580836 -5.6300424,0.210319 -6.5958129,0.72974391 -6.6970188,1.3091845 -6.964224,1.9300802 -6.7568142,2.6689702 -7.118875,3.2362722 -7.7016151,3.3385084 -9.0356775,2.1835278 -9.9311699,2.6270034 c -0.3323711,0.6392379 0.4904582,1.0449039 0.8166177,1.4825596 0.4314613,0.5680168 0.962679,1.0659192 1.31862,1.6931826 0.3213207,0.5107078 0.5192479,1.1362189 0.5178981,1.7803522 -0.031093,0.5839636 -0.4454296,0.1947485 -0.5064692,-0.150832 -0.2972624,-0.6142337 -0.91459,-0.8377901 -1.5157122,-0.9987919 -0.5669702,0.029784 -1.1664175,0.2121007 -1.6647395,0.5413802 -0.235002,0.1398213 -1.02182,0.7369761 -0.521796,0.7693825 0.545821,-0.1047198 1.283006,0.2278225 1.7532713,0.6314249 0.6655834,0.6202032 1.3472953,1.2579747 1.8275801,2.0326195 0.4125839,0.535371 0.6830492,1.193367 0.6952024,1.87886 0.086156,0.796883 0.028625,1.608453 0.1660033,2.398109 0.2482011,0.328496 0.1533716,1.184951 0.811581,0.737417 z"
     id="path2803"
     sodipodi:nodetypes="ccccccccccccccccccccccccc" />
</svg>
