<?xml version="1.0" encoding="UTF-8" standalone="no"?>
<svg
   width="7.434mm"
   height="14.998mm"
   viewBox="-13.717220 2.501063 7.434439 14.997869"
   version="1.1"
   id="svg8"
   sodipodi:docname="tobacco.svg"
   inkscape:version="1.2.2 (732a01da63, 2022-12-09)"
   xmlns:inkscape="http://www.inkscape.org/namespaces/inkscape"
   xmlns:sodipodi="http://sodipodi.sourceforge.net/DTD/sodipodi-0.dtd"
   xmlns="http://www.w3.org/2000/svg"
   xmlns:svg="http://www.w3.org/2000/svg">
  <defs
     id="defs12" />
  <sodipodi:namedview
     id="namedview10"
     pagecolor="#ffffff"
     bordercolor="#666666"
     borderopacity="1.0"
     inkscape:showpageshadow="2"
     inkscape:pageopacity="0.0"
     inkscape:pagecheckerboard="0"
     inkscape:deskcolor="#d1d1d1"
     inkscape:document-units="mm"
     showgrid="false"
     inkscape:zoom="11.775684"
     inkscape:cx="-13.459941"
     inkscape:cy="23.862734"
     inkscape:window-width="1920"
     inkscape:window-height="1017"
     inkscape:window-x="-8"
     inkscape:window-y="-8"
     inkscape:window-maximized="1"
     inkscape:current-layer="svg8" />
  <path
     style="fill:none;stroke:#000000;stroke-width:0.0500001mm"
     d="m -12.430532,17.398291 c 0.453058,-0.845544 0.864842,-1.718549 1.215717,-2.609136 0.381318,-0.545288 1.129164,-0.252004 1.6591119,-0.519326 0.4434858,-0.132696 0.995484,-0.375827 1.13443,-0.919956 0.4498944,-1.018528 1.6888386,-1.575586 1.7605372,-2.776661 0.037732,-0.6091955 0.035278,-1.2579693 0.3419424,-1.8039182 C -6.1633293,8.152014 -6.4270413,7.5814063 -6.5475094,6.9907487 -6.7208234,6.4006353 -6.783034,5.7922064 -6.865526,5.1861765 -6.9619705,4.6956191 -7.1727851,4.2850187 -7.3722308,3.8661236 -7.5020425,3.4009505 -7.7125884,2.8581442 -7.9769874,2.5028167 -8.4635317,2.7794958 -8.807938,3.2655699 -9.3165733,3.5103662 c -0.2241428,0.3255283 -0.7888537,0.4534709 -1.1234927,0.7704375 -0.506436,0.3433957 -0.926421,0.8408168 -0.885321,1.4820596 -0.428917,0.3183625 -0.862416,0.7339696 -1.120873,1.2414239 -0.160876,0.4658494 -0.43896,0.8423627 -0.73112,1.2334378 -0.39278,0.3048559 -0.567329,0.8184648 -0.534461,1.3506552 0.0036,0.7605878 -0.04638,1.5512788 0.19361,2.2823098 0.252066,0.44592 0.217663,1.074312 0.36555,1.596172 0.06791,0.294085 0.475135,0.437487 0.519429,0.707538 -0.176899,0.94846 -0.411684,1.887461 -0.545405,2.842735 -0.108749,0.483846 0.427541,0.602758 0.748125,0.381156 z"
     id="path2" />
  <path
     style="fill:none;stroke:#000000;stroke-width:0.0500001mm"
     d="m -12.044582,14.429065 c 0.0037,-0.183061 0.236902,-0.429657 0.03057,-0.554564 -0.330775,-0.316128 -0.757784,-0.625055 -0.7207,-1.140541 -0.108156,-0.975527 -0.491543,-1.919497 -0.459597,-2.909997 0.06588,-0.6301918 0.313985,-1.2290738 0.823836,-1.6115881 0.355882,-0.4599917 0.376147,-1.1294313 0.825426,-1.5140622 0.383568,-0.315393 1.037142,-0.5816347 0.916205,-1.2221947 0.04901,-0.5977417 0.7508629,-0.7922287 1.1453768,-1.1443159 0.4205975,-0.288133 0.8782079,-0.5140808 1.2608122,-0.8560181 0.3854851,0.6052736 0.5955633,1.3124632 0.7674538,2.0041236 0.019835,0.4890411 0.09305,0.962602 0.2222383,1.3858537 0.263561,0.4993863 0.2983362,1.0855799 0.2549017,1.6475784 0.029727,0.4835349 -0.2863573,0.8146481 -0.3255552,1.2483607 0.2606414,0.8286526 -0.310966,1.6442646 -0.8898605,2.1870076 -0.5689391,0.466689 -0.6527321,1.356714 -1.3535625,1.692954 -0.6280506,0.169574 -1.3526436,0.08026 -1.9141106,0.467143 -0.386281,0.33737 -0.489697,0.863472 -0.66004,1.325517 -0.05329,-0.336995 -0.01856,-0.678026 0.0766,-1.005257 z"
     id="path4" />
  <path
     style="fill:none;stroke:#000000;stroke-width:0.0500001mm"
     d="m -11.456623,13.33743 c 0.300259,-0.427458 0.373531,-1.015671 0.634821,-1.482261 0.340199,-0.731241 1.2124442,-0.863642 1.7928101,-1.332302 0.2594847,-0.228205 1.0609965,-0.39883 0.8653397,-0.8076134 -0.5226658,0.2242635 -1.0690617,0.5610094 -1.5957628,0.8383944 -0.251657,0.26703 -0.517652,0.302101 -0.383177,-0.137479 C -9.9849036,9.8701111 -9.6675848,9.3642849 -9.5625708,8.7977126 -9.397408,8.1350097 -8.7479717,7.8123197 -8.2766672,7.3846985 -7.923984,7.2576728 -7.9200398,6.7788209 -8.326255,7.0858814 -8.5396095,7.3169066 -9.3331458,7.9259793 -8.9954101,7.194541 -8.8032876,6.6186624 -8.3351223,5.9850942 -8.4760735,5.3824035 -8.8523108,5.3950666 -8.8123833,6.1615428 -9.0921245,6.4291816 -9.2175166,6.938988 -9.3868663,7.4369192 -9.5603466,7.9515398 -9.6929484,8.3767188 -9.8485891,8.992988 -10.1646,9.2103627 c -0.355746,-0.5587816 -0.590676,-1.1913821 -0.933925,-1.7566702 -0.28121,0.339613 0.236794,1.0208479 0.408178,1.4288605 0.282079,0.470262 0.544712,1.052756 0.163412,1.54924 -0.29515,0.51361 -0.478396,1.075631 -0.748444,1.587723 -0.521314,-0.363494 -0.741985,-1.036107 -1.005347,-1.574796 -0.222601,0.504496 0.305141,0.997593 0.486733,1.459629 0.476809,0.389488 0.178145,1.1227 0.195324,1.478734 l 0.06137,-0.01584 z"
     id="path6" />
</svg>
