<?xml version="1.0" encoding="UTF-8" standalone="no"?>
<svg
   width="10.977mm"
   height="14.000mm"
   viewBox="-15.488557 3.000000 10.977114 14.000000"
   version="1.1"
   id="svg199"
   sodipodi:docname="tourists.svg"
   inkscape:version="1.2.2 (732a01da63, 2022-12-09)"
   xmlns:inkscape="http://www.inkscape.org/namespaces/inkscape"
   xmlns:sodipodi="http://sodipodi.sourceforge.net/DTD/sodipodi-0.dtd"
   xmlns="http://www.w3.org/2000/svg"
   xmlns:svg="http://www.w3.org/2000/svg">
  <defs
     id="defs203" />
  <sodipodi:namedview
     id="namedview201"
     pagecolor="#ffffff"
     bordercolor="#666666"
     borderopacity="1.0"
     inkscape:showpageshadow="2"
     inkscape:pageopacity="0.0"
     inkscape:pagecheckerboard="0"
     inkscape:deskcolor="#d1d1d1"
     inkscape:document-units="mm"
     showgrid="false"
     inkscape:zoom="17.840476"
     inkscape:cx="6.8664087"
     inkscape:cy="33.126918"
     inkscape:window-width="1920"
     inkscape:window-height="1017"
     inkscape:window-x="-8"
     inkscape:window-y="-8"
     inkscape:window-maximized="1"
     inkscape:current-layer="svg199" />
  <path
     style="fill:none;stroke:#000000;stroke-width:0.0499997mm"
     d="m -5.6263063,16.819242 c 0.3353285,-0.239287 0.707197,-0.418808 1.0716333,-0.60826 l 0.043233,-5.169098 c -0.7940955,-0.09332 -1.6123068,-0.08399 -2.3767546,-0.330563 -0.6278886,0.0077 -1.056639,-0.8472388 -1.765991,-0.529629 -0.4920021,0.407757 -1.1578862,0.16662 -1.7165234,0.349465 -0.465547,0.142323 -0.933838,0.331339 -1.422327,0.450963 -0.215491,0.0544 -0.04074,-0.387464 -0.08625,-0.549217 0.02027,-1.1304033 0.09464,-2.2604815 0.129015,-3.3886666 0.09104,-0.6929751 -1.101915,-0.194993 -0.754866,-0.9422881 0.12038,-0.6316293 0.252163,-1.2821799 0.437741,-1.8771578 0.224561,-0.5045605 1.276132,0.3339361 1.115939,-0.5390346 -0.304113,-0.4458384 -1.469527,-0.5666407 -1.338889,0.2921211 -0.125965,0.6568461 -0.327214,1.292399 -0.494852,1.9375973 -0.09085,0.1879938 -0.01076,0.5694718 -0.197032,0.6465375 l -0.858942,0.045026 c -0.113518,-0.4498994 0.14842,-0.8590642 0.152361,-1.303411 0.07223,-0.6511293 0.291829,-1.3097404 0.168987,-1.9735548 -0.354227,-0.1962568 -1.506642,-0.6775286 -1.296413,0.1240578 0.173153,0.3855 0.977856,-0.0086 1.001489,0.3814473 0.0088,0.9184623 -0.173149,1.8208535 -0.324096,2.722654 -0.412969,0.042722 -0.904206,-0.039778 -1.222445,0.2787011 -0.222782,0.5339575 -0.01566,1.0571862 0.06785,1.6020096 0.06944,2.2291242 0.07889,4.4621962 -0.0034,6.6910092 -0.38891,0.651497 0.253565,1.365046 0.973856,1.186211 0.69856,-0.01222 1.414612,0.101167 2.101935,-0.03768 0.446779,-0.467298 1.089094,0.109222 1.655225,0.04508 0.7209317,0.124209 1.4794331,0.114937 2.1710394,0.359534 0.6409285,0.05299 1.2767064,0.22504 1.9354411,0.288495 0.2911263,0.04789 0.5931035,0.05067 0.833053,-0.152346 z"
     id="path181"
     sodipodi:nodetypes="ccccccccccccccccccccccccccccccc" />
  <path
     style="fill:none;stroke:#000000;stroke-width:0.0499997mm"
     d="m -7.585565,16.298659 c -0.6520118,-0.164976 -1.3009141,-0.316575 -1.9784624,-0.394959 -0.6004196,-0.0915 -1.1999236,-0.194271 -1.7896736,-0.340753 -0.01465,-1.296611 -0.02929,-2.593223 -0.04394,-3.889834 1.4496157,0.104025 2.8852032,0.364057 4.3362054,0.440474 0.2584866,0.204148 0.802203,0.05223 0.6790562,0.612259 0.025551,1.240949 -0.014231,2.48241 -0.020976,3.723572 -0.3942644,-0.04873 -0.7884613,-0.09803 -1.1822142,-0.150759 z"
     id="path183" />
  <path
     style="fill:none;stroke:#000000;stroke-width:0.0499997mm"
     d="m -5.7489427,14.166558 c -1.392e-4,-0.679347 -2.785e-4,-1.358692 -4.177e-4,-2.038039 0.2331188,-0.241285 0.8751351,-0.644336 0.7446711,0.01903 -0.054562,1.226144 -0.09357,2.453169 -0.082438,3.680702 -0.2637134,0.148342 -0.7844785,0.668807 -0.6510775,0.03411 -0.00877,-0.565219 -0.010273,-1.130526 -0.010738,-1.695803 z"
     id="path185" />
  <path
     style="fill:none;stroke:#000000;stroke-width:0.0499997mm"
     d="m -14.937526,15.799344 c -0.173872,-0.371927 -0.0739,-0.843323 0.41241,-0.59105 0.769473,0.04942 1.540891,0.02841 2.311386,0.03303 0.149072,0.601127 -0.541142,0.703876 -0.989134,0.64907 -0.578074,-0.01162 -1.162146,-0.0059 -1.734662,-0.09105 z"
     id="path187" />
  <path
     style="fill:none;stroke:#000000;stroke-width:0.0499997mm"
     d="m -14.352684,14.6019 c -0.792639,-0.03153 -0.60621,-0.980033 -0.644439,-1.522254 -0.0041,-1.503555 -8.19e-4,-3.007132 -0.0018,-4.5106963 0.511071,-0.3137817 1.151444,-0.151845 1.721302,-0.1811236 0.354614,0.00731 0.709228,0.014622 1.063842,0.021933 -0.02414,0.2021561 0.04813,0.4973973 -0.03609,0.641555 -0.438508,0.015438 -0.877015,0.030876 -1.315523,0.046313 0.0021,1.0739969 -0.08229,2.1530329 0.02605,3.2229909 0.203096,0.390651 0.741513,0.257709 1.118468,0.334926 0.328101,-0.0689 0.176499,0.288088 0.200459,0.489209 -0.01144,0.452277 -0.02288,0.904554 -0.03432,1.35683 -0.467663,0.04783 -0.896849,0.283661 -1.377492,0.195001 -0.24163,-0.01549 -0.484781,-0.03637 -0.720416,-0.09468 z"
     id="path189" />
  <path
     style="fill:none;stroke:#000000;stroke-width:0.0499997mm"
     d="m -12.762535,12.037034 c -0.370941,-0.407666 -0.118969,-1.147042 -0.214233,-1.681349 -0.172865,-0.5786212 0.270788,-0.8235515 0.762949,-0.725604 -0.01321,0.800692 0.03768,1.60664 -0.05461,2.40287 -0.144236,0.09782 -0.337743,0.03765 -0.494106,0.0041 z"
     id="path191" />
  <path
     style="fill:none;stroke:#000000;stroke-width:0.0499997mm"
     d="m -7.1413826,11.431696 c -1.0856233,-0.184224 -2.1964594,-0.174455 -3.2795624,-0.373819 -0.0511,-0.364424 0.8816212,-0.144771 1.2421919,-0.103494 0.6164244,0.05632 1.2518915,0.0078 1.8746616,0.08585 0.563931,0.04063 1.126055,0.10355 1.6845105,0.191803 -0.4482018,0.323509 -1.0011407,0.317636 -1.5218016,0.199662 z"
     id="path193"
     sodipodi:nodetypes="sccccss" />
  <path
     style="fill:none;stroke:#000000;stroke-width:0.0499997mm"
     d="m -14.953751,7.8946238 c -0.26867,-0.065508 -0.253326,-0.8151295 -0.05289,-0.8531951 0.896311,0.03655 1.743111,-0.014379 2.66091,0.040836 0.266183,0.3275839 0.137852,0.5963732 -0.07707,0.8095181 -0.654275,0.00579 -1.879852,0.074577 -2.530951,0.00284 z"
     id="path195"
     sodipodi:nodetypes="ccccc" />
  <path
     style="fill:none;stroke:#000000;stroke-width:0.0499997mm"
     d="m -6.9470808,13.848862 c -0.9779126,-0.02905 -2.2815671,0.01179 -3.2597962,-1.06e-4 v 1.310656 c 1.1358791,-4.1e-4 2.1171856,0.0438 3.2509457,-0.03645 0.039954,-0.617355 0.045873,-0.788132 0.00885,-1.274103 z"
     id="path197"
     sodipodi:nodetypes="ccccc" />
</svg>
