<?xml version="1.0" encoding="UTF-8" standalone="no"?>
<svg
   width="14.999mm"
   height="10.976mm"
   viewBox="-17.499550 4.511993 14.999099 10.976009"
   version="1.1"
   id="svg510"
   sodipodi:docname="uranium.svg"
   inkscape:version="1.2.2 (732a01da63, 2022-12-09)"
   xmlns:inkscape="http://www.inkscape.org/namespaces/inkscape"
   xmlns:sodipodi="http://sodipodi.sourceforge.net/DTD/sodipodi-0.dtd"
   xmlns="http://www.w3.org/2000/svg"
   xmlns:svg="http://www.w3.org/2000/svg">
  <defs
     id="defs514" />
  <sodipodi:namedview
     id="namedview512"
     pagecolor="#ffffff"
     bordercolor="#666666"
     borderopacity="1.0"
     inkscape:showpageshadow="2"
     inkscape:pageopacity="0.0"
     inkscape:pagecheckerboard="0"
     inkscape:deskcolor="#d1d1d1"
     inkscape:document-units="mm"
     showgrid="false"
     inkscape:zoom="16.090717"
     inkscape:cx="24.827981"
     inkscape:cy="23.056773"
     inkscape:window-width="1920"
     inkscape:window-height="1017"
     inkscape:window-x="-8"
     inkscape:window-y="-8"
     inkscape:window-maximized="1"
     inkscape:current-layer="svg510" />
  <path
     style="fill:none;stroke:#000000;stroke-width:0.0499999mm"
     d="m -9.0475462,15.419585 c 0.6366514,-0.270761 1.4083115,-0.09882 2.0153826,-0.446425 0.5706478,-0.726785 0.8793648,-1.618801 1.4019226,-2.379913 0.2751958,-0.63749 0.7441078,-1.171863 1.0075858,-1.814244 0.3318688,-0.511304 0.5810615,-1.1185885 0.9569515,-1.584179 0.2549669,-0.4986557 0.462029,-0.9936687 0.7769171,-1.4521247 C -2.4701345,7.2791838 -2.2944003,6.4617438 -3.1391407,6.448022 -3.7016512,6.2217954 -4.2555651,5.837337 -4.8568292,5.7702003 -5.3565178,6.1506805 -5.6061965,6.7717249 -6.01518,7.2430431 -6.2020302,7.4990317 -6.7903375,8.3811043 -6.7502079,7.5771669 -6.5233036,6.9971168 -6.5126609,6.3545373 -6.3920144,5.742004 -6.2494295,5.4323424 -6.7102492,5.630093 -6.8839759,5.5864227 c -0.6527428,0.034621 -1.3172319,-0.00299 -1.957049,0.1434345 -0.3331491,0.4301451 -0.3735013,1.0821499 -0.5916441,1.5994868 -0.2189106,0.4835603 -0.2061784,1.2948955 -0.707644,1.5304409 -0.491916,0.074239 -1.585549,0.7218904 -1.594826,-0.1621973 0.02415,-0.5904313 -0.244739,-1.1334612 -0.250643,-1.7249985 -0.09926,-0.7539141 -0.08791,-1.5383533 -0.365986,-2.2521451 -0.302813,-0.4540775 -1.200873,-0.045604 -1.728657,-0.066221 -0.411839,0.2047872 -0.886469,0.1586432 -1.334584,0.1952915 0.03008,0.3812353 0.05793,0.7672322 0.202417,1.1222461 0.09233,0.8326208 0.126557,1.672914 0.167471,2.5087365 -0.223575,0.6229697 -1.199826,0.5459394 -1.68472,0.9732364 -0.821746,0.014527 -0.76043,0.8626465 -0.754581,1.4580635 -0.0025,0.847488 -0.06897,1.709817 0.05488,2.54762 0.523953,0.272266 0.993555,0.627445 1.501982,0.878871 0.639819,0.541231 1.400182,-0.132474 2.047242,0.415875 0.647259,0.194286 1.204173,0.646801 1.838348,0.71103 0.508438,-0.242389 1.068653,-0.462812 1.598895,-0.564912 0.5102145,0.08596 1.0053077,0.251532 1.3363883,0.586357 l 0.034752,-0.02421 z"
     id="path496" />
  <path
     style="fill:none;stroke:#000000;stroke-width:0.0499999mm"
     d="m -12.526079,14.594868 c -0.444337,-0.365291 -1.590338,-0.423937 -1.040798,-1.216234 0.287409,-0.521051 0.311016,-1.111809 0.583822,-1.644196 0.168283,-0.541581 0.415269,-1.039614 0.534372,-1.582669 0.373423,0.04559 0.819082,0.296152 1.116041,0.502063 -0.0098,0.642187 0.08915,1.302454 -0.0359,1.930582 -0.146401,0.374638 0.78434,0.274233 0.636373,-0.247383 0.125024,-0.720139 -0.0048,-1.481816 0.201711,-2.181686 0.7477479,-0.7481995 0.451058,0.702018 0.348041,1.078676 -0.111056,0.938536 -0.04609,1.897092 -0.228234,2.825877 -0.378439,0.442415 -1.095188,0.416051 -1.615464,0.667037 -0.176584,0.03629 -0.353053,-0.04092 -0.49996,-0.132067 z"
     id="path498" />
  <path
     style="fill:none;stroke:#000000;stroke-width:0.0499999mm"
     d="m -8.4514021,14.574481 c -0.041821,-0.641376 0.3966433,-1.260374 0.5803197,-1.88429 0.1751706,-0.604212 0.4318012,-1.077449 0.5802737,-1.679281 0.2068487,-0.586275 0.4315089,-1.1874731 1.1829732,-1.1245367 0.5481698,-0.1690053 0.9044725,-0.6592063 1.2775364,-1.1008087 0.3118058,-0.2447061 0.905156,-1.4684727 1.2088251,-0.6361874 -0.3068799,0.43431 -0.5031596,1.1293985 -0.9365722,1.4813063 -0.2358789,0.5079555 -0.5370496,0.9856445 -0.8121928,1.4730915 -0.3292644,0.579052 -0.6654374,1.167769 -1.0315246,1.713565 -0.3635789,0.645608 -0.9593768,1.12432 -1.3430632,1.749389 -0.200033,0.115768 -0.5101564,0.142513 -0.7065753,0.0078 z"
     id="path500" />
  <path
     style="fill:none;stroke:#000000;stroke-width:0.0499999mm"
     d="m -9.4375208,12.161739 c 0.120268,-1.055051 0.029253,-2.121002 0.1284943,-3.1761171 0.2882037,-0.3463346 0.9078845,-0.1500315 1.34647,-0.2027479 0.1721072,0.047647 0.5758795,-0.096804 0.5993168,0.074121 -0.1338534,0.540017 -0.3645562,1.0412983 -0.6112069,1.542716 -0.1814926,0.73262 -0.5978206,1.373715 -0.794671,2.101545 -0.2488593,0.479071 -0.3785902,1.018925 -0.7008214,1.462148 -0.033622,-0.600837 -0.039227,-1.202882 0.032418,-1.801665 z"
     id="path502" />
  <path
     style="fill:none;stroke:#000000;stroke-width:0.0499999mm"
     d="m -15.701541,13.54729 c -0.464089,-0.140325 -0.968375,-0.400535 -0.956043,-0.893886 0.28204,-0.644852 0.03731,-1.391277 0.183424,-2.070809 0.539426,-0.120467 1.135517,0.717562 1.736073,0.221432 0.530331,0.197705 0.60536,1.177516 0.483595,1.719313 -0.18722,0.549487 -0.463649,1.284866 -1.219892,1.077375 l -0.112779,-0.02183 z"
     id="path504" />
  <path
     style="fill:none;stroke:#000000;stroke-width:0.0499999mm"
     d="m -13.899398,9.3295009 c -0.05127,-0.6122225 -0.293907,-1.1928263 -0.281037,-1.8267168 -0.04188,-0.6184584 -0.156442,-1.236158 -0.130822,-1.8567095 0.467347,-0.1967705 1.402053,-0.6051363 1.298327,0.3081058 0.09681,1.0723314 0.214978,2.1484733 0.210911,3.2256366 -0.155563,0.4816028 -0.591301,0.8053865 -0.910491,1.184603 -0.140429,-0.326915 -0.1842,-0.6809463 -0.186888,-1.0349191 z"
     id="path506" />
  <path
     style="fill:none;stroke:#000000;stroke-width:0.0499999mm"
     d="m -15.252685,9.8366478 c -0.407705,-0.1893833 0.316658,-0.3557361 0.482822,-0.3491789 0.392898,0.4106157 -0.123225,0.6669251 -0.482822,0.3491789 z"
     id="path508" />
</svg>
