<?xml version="1.0" encoding="UTF-8" standalone="no"?>
<svg
   width="5mm"
   height="15.999mm"
   viewBox="-4.937584 0.234008 5.0002255 15.999246"
   version="1.1"
   id="svg854"
   sodipodi:docname="wheat.svg"
   inkscape:version="1.2.2 (732a01da63, 2022-12-09)"
   xmlns:inkscape="http://www.inkscape.org/namespaces/inkscape"
   xmlns:sodipodi="http://sodipodi.sourceforge.net/DTD/sodipodi-0.dtd"
   xmlns="http://www.w3.org/2000/svg"
   xmlns:svg="http://www.w3.org/2000/svg">
  <defs
     id="defs858" />
  <sodipodi:namedview
     id="namedview856"
     pagecolor="#ffffff"
     bordercolor="#666666"
     borderopacity="1.0"
     inkscape:showpageshadow="2"
     inkscape:pageopacity="0.0"
     inkscape:pagecheckerboard="0"
     inkscape:deskcolor="#d1d1d1"
     inkscape:document-units="mm"
     showgrid="false"
     inkscape:zoom="22.077843"
     inkscape:cx="-1.6079469"
     inkscape:cy="46.78899"
     inkscape:window-width="1920"
     inkscape:window-height="1017"
     inkscape:window-x="-8"
     inkscape:window-y="-8"
     inkscape:window-maximized="1"
     inkscape:current-layer="svg854" />
  <path
     style="fill:none;stroke:#000000;stroke-width:0.0499994mm"
     d="m -1.964755,16.193617 c 0.00621,-0.169102 -0.0015,-1.228569 0.014001,-1.451036 0.2263056,-0.308946 0.5803656,-0.624748 0.95761821,-0.777648 0.4602625,-0.308809 0.70270089,-0.609301 0.84140699,-1.026954 0.11277272,-0.758396 0.193691,-1.589832 0.0595633,-2.301705 -0.0946545,0.597819 -1.4613184,2.363977 -1.807021,1.981772 -0.1169722,-0.144237 -0.019354,-0.379254 -0.05149,-0.55938 0.2912497,-0.773927 1.45080965,-0.978486 1.6380007,-1.526138 C 0.03851698,9.694501 -0.01110046,8.6967777 -0.06810053,7.8591909 -0.36652914,8.4981212 -0.66775369,9.1579408 -1.3223494,9.638727 -1.5493857,9.7624985 -2.0127112,10.106539 -1.9507538,9.593114 -1.8573234,8.7384929 -0.64992556,8.5593713 -0.38434169,8.0724919 0.06453988,7.2123067 -0.01086397,6.1362013 -0.06158377,5.2384489 -0.31883188,5.8353133 -0.56573809,6.3964901 -1.1308799,6.9018319 -1.3763409,7.042727 -1.6827118,7.3656518 -1.9359137,7.2277782 -2.004105,6.3855965 -1.2274338,6.1021103 -0.60262759,5.7407471 0.00667038,4.7347859 0.06123334,3.6734972 -0.06962956,2.6173877 -0.31304898,3.2835339 -0.65171827,3.810602 -1.1919098,4.3381225 -1.4450052,4.478629 -2.0380737,4.9462367 -2.0343229,4.3929882 -2.1129066,4.085287 -1.7803942,3.9503711 -1.5615267,3.8390337 -1.3614577,3.6741097 -1.2469615,3.440532 -1.2997235,3.1619932 V 1.8969324 C -1.3479094,1.5162 -1.518352,1.0807466 -1.7488213,0.73222392 -1.7727845,0.42241736 -2.0207362,0.03699165 -2.2014512,0.53876025 -2.3251727,0.73940003 -2.3479487,1.0001546 -2.4891899,1.1874362 c -0.2273012,0.3632312 -0.4528088,0.7171935 -0.5400357,1.1598742 -0.061982,0.2523653 -0.1199711,0.581471 -0.080084,0.9250607 0.1139622,0.2917238 0.172079,0.5350273 0.5135072,0.6975577 0.1506937,0.1794816 0.1269103,0.3943462 0.1128302,0.6211616 0.02637,0.2741698 -0.2016525,0.2574827 -0.3813257,0.1544036 C -3.2234155,4.5974884 -3.583494,4.2868475 -3.7772974,3.9289604 -3.9880195,3.6655541 -4.0650566,3.3160934 -4.2592703,3.1261913 c -0.1183828,-0.77202 -0.1359179,0.3498647 -0.1268422,0.6032663 -0.00176,0.2808405 0.034625,0.561681 0.032865,0.8425215 0.067085,0.3139758 0.010965,0.7464031 0.2708916,1.038482 0.5294062,0.6873458 1.3945282,0.8377037 1.5855755,1.5147568 0.082403,0.5799737 -0.4301456,0.2213512 -0.6764683,0.084556 C -3.5410214,6.9144867 -3.8843884,6.538514 -4.0337133,6.1087594 -4.1813003,5.8793787 -4.3828244,5.8076234 -4.3209364,5.4546801 c -0.1593511,0.5514001 -0.02189,1.2335896 0.025944,1.7657721 0.042735,0.34384 0.087277,0.6787828 0.2497189,1.0544066 0.5856045,0.6423211 1.3100258,0.8283853 1.5478779,1.4796364 0.041973,0.5861658 -0.4783356,0.1383821 -0.7318496,0.015096 -0.4773913,-0.3283746 -0.6868809,-0.9028349 -0.9870349,-1.2974678 -0.1563134,-0.037642 -0.090528,-0.7702082 -0.1800572,-0.2189722 0.038989,0.5065426 0.072497,1.0089289 0.068512,1.5197479 0.088805,0.3555729 0.05944,0.6462369 0.2454692,1.0543159 0.5310079,0.687548 1.3924047,0.838222 1.5854298,1.515396 0.1010514,0.82885 -0.6367467,0.372659 -0.9686086,-0.01051 -0.423393,-0.280326 -0.5383957,-0.810914 -0.7649527,-1.145819 -0.1044726,-0.250797 -0.1752776,-0.572631 -0.1672722,-0.07034 -0.00564,0.485036 0.026828,0.957399 0.069941,1.446692 0.094823,0.386423 0.084914,0.578586 0.2454631,1.053841 0.2592849,0.545268 0.9354417,0.545872 1.292146,1.01959 0.1294466,0.151867 0.3217552,0.239805 0.2934295,0.494943 l 0.00424,1.063888 c 0.2308537,0.03941 0.4059719,0.01749 0.527788,-0.0013 z"
     id="path852"
     sodipodi:nodetypes="cccccccccccccccccccccccccccccccccccccccccccccccccccccccccc" />
</svg>
