<?xml version="1.0" encoding="UTF-8" standalone="no"?>
<svg
   width="11.167mm"
   height="15.999mm"
   viewBox="4.916365 -17.499563 11.167298 15.99914"
   version="1.1"
   id="svg1"
   sodipodi:docname="wood.svg"
   inkscape:version="1.3.2 (091e20e, 2023-11-25, custom)"
   xmlns:inkscape="http://www.inkscape.org/namespaces/inkscape"
   xmlns:sodipodi="http://sodipodi.sourceforge.net/DTD/sodipodi-0.dtd"
   xmlns="http://www.w3.org/2000/svg"
   xmlns:svg="http://www.w3.org/2000/svg">
  <defs
     id="defs1" />
  <sodipodi:namedview
     id="namedview1"
     pagecolor="#ffffff"
     bordercolor="#000000"
     borderopacity="0.25"
     inkscape:showpageshadow="2"
     inkscape:pageopacity="0.0"
     inkscape:pagecheckerboard="0"
     inkscape:deskcolor="#d1d1d1"
     inkscape:document-units="mm"
     inkscape:zoom="12.348046"
     inkscape:cx="19.193321"
     inkscape:cy="28.344566"
     inkscape:window-width="1500"
     inkscape:window-height="938"
     inkscape:window-x="-6"
     inkscape:window-y="-6"
     inkscape:window-maximized="1"
     inkscape:current-layer="svg1" />
  <path
     style="fill:none;stroke:#000000;stroke-width:0.0500005mm"
     d="m 10.871781,-1.9732541 0.52955,-0.00673 v -1.32026 -1.3202641 h 2.10574 c 1.158157,0 2.10574,-0.00929 2.10574,-0.020647 0,-0.021229 -0.101788,-0.1864718 -0.227723,-0.3696864 -0.03923,-0.057065 -0.07132,-0.1102222 -0.07132,-0.1181276 0,-0.00791 -0.05046,-0.088083 -0.11214,-0.1781717 -0.06168,-0.090089 -0.11214,-0.1677886 -0.11214,-0.1726665 0,-0.00488 -0.07822,-0.1303266 -0.17382,-0.278775 -0.0956,-0.1484477 -0.2256,-0.3540103 -0.288887,-0.4568053 -0.06329,-0.102795 -0.181204,-0.2878258 -0.262038,-0.41118 -0.08083,-0.1233542 -0.169887,-0.2635292 -0.197896,-0.3115 -0.02801,-0.047971 -0.08139,-0.1339899 -0.118613,-0.1911541 -0.340598,-0.5229968 -0.46291,-0.7302288 -0.442839,-0.7502998 0.0083,-0.00826 0.303502,0.00418 0.656102,0.027645 0.3526,0.02346 0.665986,0.04242 0.696412,0.042132 0.04906,-4.635e-4 0.03212,-0.034739 -0.14952,-0.3026579 -0.112662,-0.166174 -0.221662,-0.3277912 -0.242221,-0.3591497 -0.09895,-0.1509315 -0.200888,-0.3034606 -0.236146,-0.3533577 -0.04491,-0.063551 -0.602182,-0.8924133 -1.303245,-1.9383781 -0.266409,-0.397474 -0.500019,-0.740384 -0.519134,-0.762022 -0.01911,-0.02164 -0.03476,-0.04687 -0.03476,-0.05607 0,-0.0092 0.318666,-0.01673 0.708147,-0.01673 h 0.708148 l -0.05981,-0.10591 c -0.0329,-0.05825 -0.07028,-0.129423 -0.08308,-0.158161 -0.0128,-0.02874 -0.06906,-0.127058 -0.125017,-0.218489 -0.05596,-0.09143 -0.101749,-0.171324 -0.101749,-0.177541 0,-0.0062 -0.05163,-0.09854 -0.114733,-0.205152 -0.0631,-0.106616 -0.149011,-0.255524 -0.190905,-0.330907 -0.04189,-0.07538 -0.431301,-0.759437 -0.86535,-1.52012 -0.434048,-0.760683 -0.821932,-1.444737 -0.861965,-1.52012 -0.04003,-0.07538 -0.07962,-0.142667 -0.08798,-0.14952 -0.0084,-0.0069 -0.05321,-0.08161 -0.09968,-0.166123 -0.371039,-0.674805 -0.483848,-0.856006 -0.508131,-0.816191 -0.04079,0.06688 -0.146211,0.2331 -0.299007,0.471454 -0.07907,0.123354 -0.168615,0.263529 -0.198976,0.3115 -0.03036,0.04797 -0.132588,0.207766 -0.22717,0.355101 -0.094582,0.147334 -0.2280372,0.357734 -0.2965672,0.467555 -0.1859167,0.297935 -0.6191003,0.978238 -0.7852698,1.233244 -0.080381,0.123354 -0.1976784,0.308385 -0.2606607,0.41118 -0.062982,0.102795 -0.2365621,0.377538 -0.3857322,0.61054 -0.1491709,0.233002 -0.3526681,0.552601 -0.4522165,0.71022 -0.295865,0.468455 -0.400196,0.631657 -0.4494003,0.702981 -0.02562,0.03714 -0.046581,0.07358 -0.046581,0.08099 0,0.0074 0.3541753,0.01347 0.7870568,0.01347 0.4328809,0 0.7833184,0.0088 0.77875,0.01947 -0.00457,0.01071 -0.3835479,0.518144 -0.8421768,1.12763 -1.7565842,2.3343801 -1.97252,2.6273124 -1.9437875,2.6368902 0.016229,0.00541 0.3450638,-0.00952 0.7307429,-0.033167 0.3856789,-0.023652 0.7338182,-0.039017 0.7736431,-0.034145 l 0.072408,0.00886 -0.062405,0.07476 c -0.034323,0.041118 -0.1341899,0.1784935 -0.2219278,0.3052792 -0.087738,0.1267855 -0.2015761,0.2893893 -0.2529743,0.36134 -0.051398,0.071951 -0.1323738,0.1868908 -0.1799469,0.2554208 -0.047574,0.06853 -0.131757,0.1862772 -0.1870742,0.26166 -0.055317,0.075383 -0.1389726,0.19313 -0.1859007,0.26166 -0.046928,0.06853 -0.1254091,0.18067 -0.1744033,0.2492 C 6.3787161,-5.9599007 6.2715611,-5.808433 6.144806,-5.627747 6.095951,-5.558104 6.0055146,-5.4304008 5.9438374,-5.3439618 5.7601002,-5.0864605 5.6745155,-4.9641 5.5827743,-4.8277503 c -0.047805,0.071049 -0.098263,0.1361916 -0.1121271,0.1447608 -0.013865,0.00857 -0.02521,0.026132 -0.02521,0.039029 0,0.014491 0.9234303,0.023449 2.41724,0.023449 h 2.4172398 v 1.3180938 c 0,1.0331167 0.0067,1.3200176 0.03115,1.32699 0.01713,0.00489 0.269448,0.00587 0.5607,0.00217 z"
     id="path1" />
</svg>
